<?xml version="1.0" encoding="iso-8859-1"?>
<!-- Generator: Adobe Illustrator 19.0.0, SVG Export Plug-In . SVG Version: 6.00 Build 0)  -->
<svg xmlns="http://www.w3.org/2000/svg" xmlns:xlink="http://www.w3.org/1999/xlink" version="1.1" id="Layer_1" x="0px" y="0px" viewBox="0 0 512 512" style="enable-background:new 0 0 512 512;" xml:space="preserve" width="512px" height="512px">
<g>
	<g>
		<path d="M442.182,108.606h-31.03h-54.303V23.273C356.849,10.42,346.429,0,333.576,0c-12.853,0-23.273,10.42-23.273,23.273v85.333    H201.697V23.273C201.697,10.42,191.277,0,178.424,0s-23.273,10.42-23.273,23.273v85.333h-54.303h-31.03    c-12.853,0-23.273,10.42-23.273,23.273c0,12.853,10.42,23.273,23.273,23.273h7.758V256c0,90.497,67.724,165.468,155.152,176.907    v55.82C232.727,501.58,243.147,512,256,512c12.853,0,23.273-10.42,23.273-23.273v-55.82    c87.428-11.441,155.152-86.41,155.152-176.907V155.152h7.758c12.853,0,23.273-10.42,23.273-23.273    C465.455,119.026,455.035,108.606,442.182,108.606z M387.879,256c0,72.718-59.161,131.879-131.879,131.879    S124.121,328.718,124.121,256V155.152h263.758V256z" fill="#c5c5c5"/>
	</g>
</g>
</svg>
