<?xml version="1.0" encoding="UTF-8" standalone="no"?>
<!DOCTYPE svg PUBLIC "-//W3C//DTD SVG 1.1//EN" "http://www.w3.org/Graphics/SVG/1.1/DTD/svg11.dtd">
<svg version="1.1" xmlns="http://www.w3.org/2000/svg" xmlns:xlink="http://www.w3.org/1999/xlink" preserveAspectRatio="xMidYMid meet" viewBox="0 0 512 512" width="512" height="512"><defs><path d="M211.6 0.01L211.89 0.03L212.19 0.05L212.48 0.07L212.78 0.11L213.07 0.14L213.36 0.19L213.65 0.24L213.94 0.29L214.23 0.35L214.51 0.42L214.8 0.49L215.08 0.57L215.36 0.65L215.64 0.74L215.92 0.83L216.19 0.93L216.47 1.03L216.74 1.14L217.01 1.26L217.28 1.38L217.54 1.5L217.8 1.63L218.06 1.77L218.32 1.91L218.57 2.05L218.83 2.2L219.08 2.36L219.32 2.52L219.56 2.69L219.8 2.86L220.04 3.03L220.28 3.21L220.51 3.4L220.73 3.59L220.96 3.78L221.18 3.98L221.39 4.18L221.61 4.39L247.21 30L361 30L361.62 30.01L362.23 30.05L362.84 30.11L363.43 30.2L364.02 30.3L364.6 30.44L365.18 30.59L365.74 30.76L366.29 30.96L366.84 31.18L367.37 31.42L367.89 31.67L368.4 31.95L368.9 32.25L369.39 32.56L369.86 32.89L370.32 33.24L370.76 33.61L371.19 33.99L371.61 34.39L372.01 34.81L372.39 35.24L372.76 35.68L373.11 36.14L373.44 36.61L373.75 37.1L374.05 37.6L374.33 38.11L374.58 38.63L374.82 39.16L375.04 39.71L375.24 40.26L375.41 40.82L375.56 41.4L375.7 41.98L375.8 42.57L375.89 43.16L375.95 43.77L375.99 44.38L376 45L376 196L375.99 196.62L375.95 197.23L375.89 197.84L375.8 198.43L375.7 199.02L375.56 199.6L375.41 200.18L375.24 200.74L375.04 201.29L374.82 201.84L374.58 202.37L374.33 202.89L374.05 203.4L373.75 203.9L373.44 204.39L373.11 204.86L372.76 205.32L372.39 205.76L372.01 206.19L371.61 206.61L371.19 207.01L370.76 207.39L370.32 207.76L369.86 208.11L369.39 208.44L368.9 208.75L368.4 209.05L367.89 209.33L367.37 209.58L366.84 209.82L366.29 210.04L365.74 210.24L365.18 210.41L364.6 210.56L364.02 210.7L363.43 210.8L362.84 210.89L362.23 210.95L361.62 210.99L361 211L271 211L271 241L437 241L437.62 241.01L438.23 241.05L438.84 241.11L439.43 241.2L440.02 241.3L440.6 241.44L441.18 241.59L441.74 241.76L442.29 241.96L442.84 242.18L443.37 242.42L443.89 242.67L444.4 242.95L444.9 243.25L445.39 243.56L445.86 243.89L446.32 244.24L446.76 244.61L447.19 244.99L447.61 245.39L448.01 245.81L448.39 246.24L448.76 246.68L449.11 247.14L449.44 247.61L449.75 248.1L450.05 248.6L450.33 249.11L450.58 249.63L450.82 250.16L451.04 250.71L451.24 251.26L451.41 251.82L451.56 252.4L451.7 252.98L451.8 253.57L451.89 254.16L451.95 254.77L451.99 255.38L452 256L452 332L497 332L497.62 332.01L498.23 332.05L498.84 332.11L499.43 332.2L500.02 332.3L500.6 332.44L501.18 332.59L501.74 332.76L502.29 332.96L502.84 333.18L503.37 333.42L503.89 333.67L504.4 333.95L504.9 334.25L505.39 334.56L505.86 334.89L506.32 335.24L506.76 335.61L507.19 335.99L507.61 336.39L508.01 336.81L508.39 337.24L508.76 337.68L509.11 338.14L509.44 338.61L509.75 339.1L510.05 339.6L510.33 340.11L510.58 340.63L510.82 341.16L511.04 341.71L511.24 342.26L511.41 342.82L511.56 343.4L511.7 343.98L511.8 344.57L511.89 345.16L511.95 345.77L511.99 346.38L512 347L512 497L511.99 497.62L511.95 498.23L511.89 498.84L511.8 499.43L511.7 500.02L511.56 500.6L511.41 501.18L511.24 501.74L511.04 502.29L510.82 502.84L510.58 503.37L510.33 503.89L510.05 504.4L509.75 504.9L509.44 505.39L509.11 505.86L508.76 506.32L508.39 506.76L508.01 507.19L507.61 507.61L507.19 508.01L506.76 508.39L506.32 508.76L505.86 509.11L505.39 509.44L504.9 509.75L504.4 510.05L503.89 510.33L503.37 510.58L502.84 510.82L502.29 511.04L501.74 511.24L501.18 511.41L500.6 511.56L500.02 511.7L499.43 511.8L498.84 511.89L498.23 511.95L497.62 511.99L497 512L286 512L285.38 511.99L284.77 511.95L284.16 511.89L283.57 511.8L282.98 511.7L282.4 511.56L281.82 511.41L281.26 511.24L280.71 511.04L280.16 510.82L279.63 510.58L279.11 510.33L278.6 510.05L278.1 509.75L277.61 509.44L277.14 509.11L276.68 508.76L276.24 508.39L275.81 508.01L275.39 507.61L274.99 507.19L274.61 506.76L274.24 506.32L273.89 505.86L273.56 505.39L273.25 504.9L272.95 504.4L272.67 503.89L272.42 503.37L272.18 502.84L271.96 502.29L271.76 501.74L271.59 501.18L271.44 500.6L271.3 500.02L271.2 499.43L271.11 498.84L271.05 498.23L271.01 497.62L271 497L271 317L271.01 316.38L271.05 315.77L271.11 315.16L271.2 314.57L271.3 313.98L271.44 313.4L271.59 312.82L271.76 312.26L271.96 311.71L272.18 311.16L272.42 310.63L272.67 310.11L272.95 309.6L273.25 309.1L273.56 308.61L273.89 308.14L274.24 307.68L274.61 307.24L274.99 306.81L275.39 306.39L275.81 305.99L276.24 305.61L276.68 305.24L277.14 304.89L277.61 304.56L278.1 304.25L278.6 303.95L279.11 303.67L279.63 303.42L280.16 303.18L280.71 302.96L281.26 302.76L281.82 302.59L282.4 302.44L282.98 302.3L283.57 302.2L284.16 302.11L284.77 302.05L285.38 302.01L286 302L346 302L346.3 302L346.6 302.01L346.89 302.03L347.19 302.05L347.48 302.07L347.78 302.11L348.07 302.14L348.36 302.19L348.65 302.24L348.94 302.29L349.23 302.35L349.51 302.42L349.8 302.49L350.08 302.57L350.36 302.65L350.64 302.74L350.92 302.83L351.2 302.93L351.47 303.03L351.74 303.14L352.01 303.26L352.28 303.38L352.54 303.5L352.8 303.63L353.06 303.77L353.32 303.91L353.58 304.05L353.83 304.2L354.08 304.36L354.32 304.52L354.57 304.69L354.81 304.86L355.04 305.03L355.28 305.21L355.51 305.4L355.73 305.59L355.96 305.78L356.18 305.98L356.39 306.18L356.61 306.39L382.21 332L422 332L422 271L91 271L91 310.79L112.21 332L226 332L226.62 332.01L227.23 332.05L227.84 332.11L228.43 332.2L229.02 332.3L229.6 332.44L230.18 332.59L230.74 332.76L231.29 332.96L231.84 333.18L232.37 333.42L232.89 333.67L233.4 333.95L233.9 334.25L234.39 334.56L234.86 334.89L235.32 335.24L235.76 335.61L236.19 335.99L236.61 336.39L237.01 336.81L237.39 337.24L237.76 337.68L238.11 338.14L238.44 338.61L238.75 339.1L239.05 339.6L239.33 340.11L239.58 340.63L239.82 341.16L240.04 341.71L240.24 342.26L240.41 342.82L240.56 343.4L240.7 343.98L240.8 344.57L240.89 345.16L240.95 345.77L240.99 346.38L241 347L241 497L240.99 497.62L240.95 498.23L240.89 498.84L240.8 499.43L240.7 500.02L240.56 500.6L240.41 501.18L240.24 501.74L240.04 502.29L239.82 502.84L239.58 503.37L239.33 503.89L239.05 504.4L238.75 504.9L238.44 505.39L238.11 505.86L237.76 506.32L237.39 506.76L237.01 507.19L236.61 507.61L236.19 508.01L235.76 508.39L235.32 508.76L234.86 509.11L234.39 509.44L233.9 509.75L233.4 510.05L232.89 510.33L232.37 510.58L231.84 510.82L231.29 511.04L230.74 511.24L230.18 511.41L229.6 511.56L229.02 511.7L228.43 511.8L227.84 511.89L227.23 511.95L226.62 511.99L226 512L15 512L14.38 511.99L13.77 511.95L13.16 511.89L12.57 511.8L11.98 511.7L11.4 511.56L10.82 511.41L10.26 511.24L9.71 511.04L9.16 510.82L8.63 510.58L8.11 510.33L7.6 510.05L7.1 509.75L6.61 509.44L6.14 509.11L5.68 508.76L5.24 508.39L4.81 508.01L4.39 507.61L3.99 507.19L3.61 506.76L3.24 506.32L2.89 505.86L2.56 505.39L2.25 504.9L1.95 504.4L1.67 503.89L1.42 503.37L1.18 502.84L0.96 502.29L0.76 501.74L0.59 501.18L0.44 500.6L0.3 500.02L0.2 499.43L0.11 498.84L0.05 498.23L0.01 497.62L0 497L0 317L0.01 316.38L0.05 315.77L0.11 315.16L0.2 314.57L0.3 313.98L0.44 313.4L0.59 312.82L0.76 312.26L0.96 311.71L1.18 311.16L1.42 310.63L1.67 310.11L1.95 309.6L2.25 309.1L2.56 308.61L2.89 308.14L3.24 307.68L3.61 307.24L3.99 306.81L4.39 306.39L4.81 305.99L5.24 305.61L5.68 305.24L6.14 304.89L6.61 304.56L7.1 304.25L7.6 303.95L8.11 303.67L8.63 303.42L9.16 303.18L9.71 302.96L10.26 302.76L10.82 302.59L11.4 302.44L11.98 302.3L12.57 302.2L13.16 302.11L13.77 302.05L14.38 302.01L15 302L61 302L61 256L61.01 255.38L61.05 254.77L61.11 254.16L61.2 253.57L61.3 252.98L61.44 252.4L61.59 251.82L61.76 251.26L61.96 250.71L62.18 250.16L62.42 249.63L62.67 249.11L62.95 248.6L63.25 248.1L63.56 247.61L63.89 247.14L64.24 246.68L64.61 246.24L64.99 245.81L65.39 245.39L65.81 244.99L66.24 244.61L66.68 244.24L67.14 243.89L67.61 243.56L68.1 243.25L68.6 242.95L69.11 242.67L69.63 242.42L70.16 242.18L70.71 241.96L71.26 241.76L71.82 241.59L72.4 241.44L72.98 241.3L73.57 241.2L74.16 241.11L74.77 241.05L75.38 241.01L76 241L241 241L241 211L151 211L150.38 210.99L149.77 210.95L149.16 210.89L148.57 210.8L147.98 210.7L147.4 210.56L146.82 210.41L146.26 210.24L145.71 210.04L145.16 209.82L144.63 209.58L144.11 209.33L143.6 209.05L143.1 208.75L142.61 208.44L142.14 208.11L141.68 207.76L141.24 207.39L140.81 207.01L140.39 206.61L139.99 206.19L139.61 205.76L139.24 205.32L138.89 204.86L138.56 204.39L138.25 203.9L137.95 203.4L137.67 202.89L137.42 202.37L137.18 201.84L136.96 201.29L136.76 200.74L136.59 200.18L136.44 199.6L136.3 199.02L136.2 198.43L136.11 197.84L136.05 197.23L136.01 196.62L136 196L136 15L136.01 14.38L136.05 13.77L136.11 13.16L136.2 12.57L136.3 11.98L136.44 11.4L136.59 10.82L136.76 10.26L136.96 9.71L137.18 9.16L137.42 8.63L137.67 8.11L137.95 7.6L138.25 7.1L138.56 6.61L138.89 6.14L139.24 5.68L139.61 5.24L139.99 4.81L140.39 4.39L140.81 3.99L141.24 3.61L141.68 3.24L142.14 2.89L142.61 2.56L143.1 2.25L143.6 1.95L144.11 1.67L144.63 1.42L145.16 1.18L145.71 0.96L146.26 0.76L146.82 0.59L147.4 0.44L147.98 0.3L148.57 0.2L149.16 0.11L149.77 0.05L150.38 0.01L151 0L211 0L211.3 0L211.6 0.01ZM30 482L211 482L211 422L30 422L30 482ZM301 482L482 482L482 422L301 422L301 482ZM301 392L482 392L482 362L376 362L375.7 362L375.4 361.99L375.11 361.97L374.81 361.95L374.52 361.93L374.22 361.89L373.93 361.86L373.64 361.81L373.35 361.76L373.06 361.71L372.77 361.65L372.49 361.58L372.2 361.51L371.92 361.43L371.64 361.35L371.36 361.26L371.08 361.17L370.8 361.07L370.53 360.97L370.26 360.86L369.99 360.74L369.72 360.62L369.46 360.5L369.2 360.37L368.94 360.23L368.68 360.09L368.42 359.95L368.17 359.8L367.92 359.64L367.68 359.48L367.43 359.31L367.19 359.14L366.96 358.97L366.72 358.79L366.49 358.6L366.27 358.41L366.04 358.22L365.82 358.02L365.61 357.82L365.39 357.61L339.79 332L301 332L301 392ZM30 392L211 392L211 362L106 362L105.8 362L105.6 361.99L105.39 361.98L105.18 361.96L104.96 361.93L104.75 361.9L104.53 361.87L104.3 361.82L104.08 361.78L103.85 361.73L103.61 361.67L103.37 361.6L103.13 361.54L102.89 361.46L102.64 361.38L102.39 361.3L102.14 361.21L101.88 361.11L101.62 361.01L101.36 360.9L101.09 360.79L100.82 360.67L100.55 360.55L100.27 360.42L99.99 360.28L99.71 360.14L99.42 360L99.13 359.85L98.84 359.69L98.54 359.53L98.24 359.36L97.94 359.19L97.63 359.01L97.32 358.83L97.01 358.64L96.69 358.44L96.37 358.24L96.05 358.04L95.72 357.82L95.39 357.61L69.79 332L30 332L30 392ZM166 181L346 181L346 121L166 121L166 181ZM166 91L346 91L346 60L241 60L240.7 60L240.4 59.99L240.11 59.97L239.81 59.95L239.52 59.93L239.22 59.89L238.93 59.86L238.64 59.81L238.35 59.76L238.06 59.71L237.77 59.65L237.49 59.58L237.2 59.51L236.92 59.43L236.64 59.35L236.36 59.26L236.08 59.17L235.81 59.07L235.53 58.97L235.26 58.86L234.99 58.74L234.72 58.62L234.46 58.5L234.2 58.37L233.94 58.23L233.68 58.09L233.43 57.95L233.17 57.8L232.92 57.64L232.68 57.48L232.44 57.31L232.2 57.14L231.96 56.97L231.72 56.79L231.49 56.6L231.27 56.41L231.04 56.22L230.82 56.02L230.61 55.82L230.39 55.61L204.79 30L166 30L166 91Z" id="cKJXiI0SQ"></path></defs><g><g><g><use xlink:href="#cKJXiI0SQ" opacity="1" fill="#c5c5c5" fill-opacity="1"></use><g><use xlink:href="#cKJXiI0SQ" opacity="1" fill-opacity="0" stroke="#000000" stroke-width="1" stroke-opacity="0"></use></g></g></g></g></svg>