<?xml version="1.0" encoding="iso-8859-1"?>
<!-- Generator: Adobe Illustrator 19.0.0, SVG Export Plug-In . SVG Version: 6.00 Build 0)  -->
<svg xmlns="http://www.w3.org/2000/svg" xmlns:xlink="http://www.w3.org/1999/xlink" version="1.1" id="Capa_1" x="0px" y="0px" viewBox="0 0 512 512" style="enable-background:new 0 0 512 512;" xml:space="preserve" width="512px" height="512px">
<g>
	<g>
		<path d="M497,332h-45v-76c0-8.284-6.716-15-15-15H271v-30h90c8.284,0,15-6.716,15-15V45c0-8.284-6.716-15-15-15H247.213    L221.606,4.393C218.793,1.58,214.978,0,211,0h-60c-8.284,0-15,6.716-15,15v181c0,8.284,6.716,15,15,15h90v30H76    c-8.284,0-15,6.716-15,15v46H15c-8.284,0-15,6.716-15,15v180c0,8.284,6.716,15,15,15h211c8.284,0,15-6.716,15-15V347    c0-8.284-6.716-15-15-15H112.213L91,310.787V271h331v61h-39.787l-25.606-25.607C353.794,303.58,349.979,302,346,302h-60    c-8.284,0-15,6.716-15,15v180c0,8.284,6.716,15,15,15h211c8.284,0,15-6.716,15-15V347C512,338.716,505.284,332,497,332z M211,482    H30v-60h181V482z M95.394,357.607C98.207,360.42,102.022,362,106,362h105v30H30v-60h39.787L95.394,357.607z M166,30h38.787    l25.607,25.607C233.207,58.42,237.022,60,241,60h105v31H166V30z M166,181v-60h180v60H166z M482,482H301v-60h181V482z M482,392H301    v-60h38.787l25.606,25.607C368.206,360.42,372.021,362,376,362h106V392z" fill="#c5c5c5"/>
	</g>
</g>
<g>
</g>
<g>
</g>
<g>
</g>
<g>
</g>
<g>
</g>
<g>
</g>
<g>
</g>
<g>
</g>
<g>
</g>
<g>
</g>
<g>
</g>
<g>
</g>
<g>
</g>
<g>
</g>
<g>
</g>
</svg>
