<svg width="401.994" height="401.994" xmlns="http://www.w3.org/2000/svg">

 <g>
  <title>background</title>
  <rect fill="none" id="canvas_background" height="402" width="582" y="-1" x="-1"/>
 </g>
 <g>
  <title>Layer 1</title>
  <path stroke="null" id="svg_1" d="m357.512904,163.027171c-4.322311,-4.322311 -9.573959,-6.482655 -15.746024,-6.482655l-96.317787,-0.81094l0,-95.505225c0,-6.171254 -2.161155,-11.42128 -6.481844,-15.743591c-4.322311,-4.322311 -9.56666,-6.484277 -15.748456,-6.484277l-44.447626,0c-6.173687,0 -11.422091,2.159533 -15.744402,6.481844c-4.322311,4.322311 -6.482655,9.571526 -6.482655,15.743591l0,96.319409l-96.315354,0c-6.172876,0 -11.422091,2.160344 -15.744402,6.482655s-6.481844,9.56666 -6.481844,15.743591l0,44.454114c0,6.177742 2.158723,11.422902 6.481033,15.740347c4.322311,4.324743 9.571526,6.483466 15.743591,6.483466l96.315354,0l0,96.321031c0,6.171254 2.161155,11.426146 6.483466,15.746024c4.322311,4.318256 9.573959,6.476978 15.746835,6.476978l44.448437,0c6.177742,0 11.423713,-2.158723 15.746835,-6.476978c4.323933,-4.322311 6.482655,-9.573959 6.482655,-15.746024l0,-96.321031l96.315354,0c6.177742,0 11.426146,-2.158723 15.746024,-6.482655c4.318256,-4.322311 6.479411,-9.56666 6.479411,-15.744402l0,-44.455736c0,-6.175309 -2.157101,-11.422902 -6.481844,-15.74278l0.003244,0.003244z" fill="#424242"/>
 </g>
</svg>
