<?xml version="1.0" encoding="iso-8859-1"?>
<!-- Generator: Adobe Illustrator 19.0.0, SVG Export Plug-In . SVG Version: 6.00 Build 0)  -->
<svg xmlns="http://www.w3.org/2000/svg" xmlns:xlink="http://www.w3.org/1999/xlink" version="1.1" id="Capa_1" x="0px" y="0px" viewBox="0 0 512 512" style="enable-background:new 0 0 512 512;" xml:space="preserve" width="512px" height="512px">
<g>
	<g>
		<path d="M424.019,195l54.453-81.679c6.639-9.96-0.529-23.321-12.481-23.321h-150c-8.271,0-15-6.728-15-14.998V75    c0-24.813-20.187-45-45-45h-107.58c-6.192-17.459-22.865-30-42.42-30c-24.813,0-45,20.187-45,45v437h-15c-8.284,0-15,6.716-15,15    s6.716,15,15,15c12.802,0,107.206,0,120,0c8.284,0,15-6.716,15-15s-6.716-15-15-15h-15V270h122.58    c6.192,17.458,22.865,30,42.42,30h150c11.969,0,19.111-13.376,12.481-23.321L424.019,195z M120.991,482h-30V45    c0-8.271,6.729-15,15-15s15,6.729,15,15C120.991,52.639,120.991,474.2,120.991,482z M270.991,240h-120V60h105    c8.271,0,15,6.729,15,15V240z M315.991,270c-8.271,0-15-6.729-15-15V117.42c4.695,1.665,9.741,2.58,15,2.58h121.972    l-44.453,66.679c-3.359,5.039-3.359,11.603,0,16.641L437.963,270H315.991z" fill="#656565"/>
	</g>
</g>
<g>
</g>
<g>
</g>
<g>
</g>
<g>
</g>
<g>
</g>
<g>
</g>
<g>
</g>
<g>
</g>
<g>
</g>
<g>
</g>
<g>
</g>
<g>
</g>
<g>
</g>
<g>
</g>
<g>
</g>
</svg>
