<?xml version="1.0" encoding="UTF-8" standalone="no"?>
<!DOCTYPE svg PUBLIC "-//W3C//DTD SVG 1.1//EN" "http://www.w3.org/Graphics/SVG/1.1/DTD/svg11.dtd">
<svg version="1.1" xmlns="http://www.w3.org/2000/svg" xmlns:xlink="http://www.w3.org/1999/xlink" preserveAspectRatio="xMidYMid meet" viewBox="0 0 512 512" width="512" height="512"><defs><path d="M17.67 0.82L18.27 0.87L18.87 0.95L19.47 1.06L20.06 1.18L20.65 1.33L21.23 1.51L21.81 1.7L22.38 1.92L22.94 2.16L23.5 2.43L24.04 2.71L24.58 3.02L25.11 3.36L25.62 3.71L26.13 4.09L26.62 4.5L27.1 4.92L27.57 5.37L83.07 60.87L94.17 49.77L95.57 48.43L97.01 47.15L98.49 45.95L100 44.81L101.55 43.74L103.13 42.75L104.75 41.82L106.39 40.95L108.05 40.16L109.74 39.44L111.45 38.79L113.18 38.2L114.93 37.68L116.7 37.24L118.47 36.86L120.26 36.55L122.05 36.31L123.86 36.13L125.66 36.03L127.47 36L129.28 36.03L131.09 36.13L132.89 36.31L134.68 36.55L136.47 36.86L138.25 37.24L140.01 37.68L141.76 38.2L143.49 38.79L145.2 39.44L146.89 40.16L148.56 40.95L150.2 41.82L151.81 42.75L153.39 43.74L154.94 44.81L156.46 45.95L157.93 47.15L159.37 48.43L160.77 49.77L173.78 62.78L175.1 62.17L176.44 61.61L177.78 61.09L179.14 60.62L180.51 60.19L181.9 59.8L183.29 59.45L184.69 59.14L186.09 58.88L187.5 58.66L188.92 58.49L190.34 58.35L191.76 58.26L193.19 58.21L194.61 58.21L196.04 58.24L197.46 58.32L198.88 58.45L200.3 58.61L201.71 58.82L203.12 59.07L204.52 59.37L205.91 59.7L207.3 60.08L208.67 60.5L210.04 60.97L211.39 61.48L212.72 62.03L214.05 62.62L215.36 63.26L216.65 63.93L217.92 64.66L219.18 65.42L220.42 66.23L221.63 67.08L222.83 67.97L224 68.9L225.15 69.88L226.28 70.9L227.37 71.97L282.87 127.47L293.97 116.37L294.44 115.92L294.92 115.5L295.41 115.1L295.92 114.72L296.44 114.36L296.96 114.03L297.5 113.72L298.05 113.43L298.6 113.16L299.17 112.92L299.74 112.7L300.31 112.51L300.9 112.34L301.48 112.19L302.08 112.06L302.67 111.96L303.27 111.88L303.87 111.82L304.47 111.78L305.07 111.77L305.68 111.78L306.28 111.82L306.88 111.88L307.48 111.96L308.07 112.06L308.66 112.19L309.25 112.34L309.83 112.51L310.41 112.7L310.98 112.92L311.54 113.16L312.1 113.43L312.65 113.72L313.18 114.03L313.71 114.36L314.23 114.72L314.73 115.1L315.23 115.5L315.71 115.92L316.17 116.37L316.62 116.84L317.05 117.32L317.45 117.81L317.83 118.32L318.19 118.83L318.52 119.36L318.83 119.9L319.12 120.44L319.38 121L319.62 121.56L319.84 122.13L320.04 122.71L320.21 123.29L320.36 123.88L320.48 124.47L320.59 125.07L320.67 125.66L320.72 126.26L320.76 126.87L320.77 127.47L320.76 128.07L320.72 128.67L320.67 129.27L320.59 129.87L320.48 130.47L320.36 131.06L320.21 131.65L320.04 132.23L319.84 132.81L319.62 133.38L319.38 133.94L319.12 134.49L318.83 135.04L318.52 135.58L318.19 136.11L317.83 136.62L317.45 137.13L317.05 137.62L316.62 138.1L316.17 138.57L315.61 139.14L314.46 140.28L312.77 141.98L310.55 144.19L304.69 150.06L301.09 153.65L297.1 157.64L292.75 162L288.05 166.7L283.04 171.7L277.76 176.99L272.22 182.52L266.47 188.27L260.53 194.21L254.43 200.31L248.2 206.54L241.88 212.87L235.48 219.26L229.05 225.7L222.61 232.14L216.19 238.56L209.82 244.93L203.53 251.21L197.36 257.39L191.32 263.42L185.46 269.28L179.8 274.94L174.37 280.37L169.21 285.53L164.34 290.41L159.78 294.96L155.58 299.16L151.77 302.98L148.36 306.38L145.4 309.34L142.91 311.84L140.92 313.82L139.46 315.28L138.57 316.17L138.1 316.62L137.62 317.05L137.13 317.45L136.63 317.83L136.11 318.18L135.58 318.52L135.04 318.83L134.5 319.12L133.94 319.38L133.38 319.62L132.81 319.84L132.23 320.03L131.65 320.21L131.06 320.36L130.47 320.48L129.87 320.59L129.28 320.67L128.68 320.72L128.07 320.76L127.47 320.77L126.87 320.76L126.27 320.72L125.67 320.67L125.07 320.59L124.47 320.48L123.88 320.36L123.29 320.21L122.71 320.03L122.14 319.84L121.56 319.62L121 319.38L120.45 319.12L119.9 318.83L119.36 318.52L118.83 318.18L118.32 317.83L117.81 317.45L117.32 317.05L116.84 316.62L116.37 316.17L115.92 315.71L115.5 315.23L115.1 314.73L114.72 314.23L114.36 313.71L114.03 313.18L113.72 312.65L113.43 312.1L113.17 311.54L112.92 310.98L112.71 310.41L112.51 309.83L112.34 309.25L112.19 308.66L112.06 308.07L111.96 307.48L111.88 306.88L111.82 306.28L111.79 305.68L111.77 305.07L111.79 304.47L111.82 303.87L111.88 303.27L111.96 302.67L112.06 302.07L112.19 301.48L112.34 300.9L112.51 300.31L112.71 299.74L112.92 299.17L113.17 298.6L113.43 298.05L113.72 297.5L114.03 296.96L114.36 296.43L114.72 295.92L115.1 295.41L115.5 294.92L115.92 294.44L116.37 293.97L127.47 282.87L71.97 227.37L70.9 226.28L69.88 225.15L68.91 224L67.97 222.83L67.08 221.63L66.23 220.42L65.42 219.18L64.66 217.92L63.93 216.65L63.26 215.36L62.62 214.05L62.03 212.72L61.48 211.39L60.97 210.03L60.5 208.67L60.08 207.3L59.7 205.91L59.37 204.52L59.07 203.12L58.82 201.71L58.61 200.3L58.45 198.88L58.32 197.46L58.25 196.04L58.21 194.61L58.21 193.19L58.26 191.76L58.35 190.34L58.49 188.92L58.66 187.5L58.88 186.09L59.14 184.68L59.45 183.29L59.8 181.9L60.19 180.51L60.62 179.14L61.1 177.78L61.61 176.43L62.18 175.1L62.78 173.78L49.77 160.77L48.43 159.37L47.15 157.93L45.94 156.45L44.8 154.93L43.73 153.38L42.73 151.8L41.8 150.19L40.94 148.54L40.14 146.88L39.42 145.19L38.76 143.48L38.18 141.75L37.66 140L37.21 138.24L36.83 136.46L36.52 134.68L36.28 132.88L36.1 131.08L36 129.28L35.97 127.47L36 125.66L36.1 123.86L36.28 122.06L36.52 120.27L36.83 118.48L37.21 116.7L37.66 114.94L38.17 113.19L38.76 111.46L39.42 109.75L40.14 108.06L40.94 106.4L41.8 104.76L42.73 103.14L43.73 101.56L44.8 100.01L45.94 98.49L47.15 97.01L48.42 95.57L49.77 94.17L60.87 83.07L5.37 27.57L4.92 27.1L4.49 26.62L4.09 26.13L3.71 25.62L3.36 25.11L3.02 24.58L2.71 24.04L2.43 23.49L2.16 22.94L1.92 22.38L1.7 21.81L1.51 21.23L1.33 20.65L1.18 20.06L1.06 19.47L0.95 18.87L0.87 18.27L0.82 17.67L0.78 17.07L0.77 16.47L0.78 15.87L0.82 15.27L0.87 14.67L0.95 14.07L1.06 13.47L1.18 12.88L1.33 12.29L1.51 11.71L1.7 11.13L1.92 10.56L2.16 10L2.43 9.44L2.71 8.9L3.02 8.36L3.36 7.83L3.71 7.32L4.09 6.81L4.49 6.32L4.92 5.84L5.37 5.37L5.83 4.92L6.31 4.5L6.81 4.09L7.31 3.71L7.83 3.36L8.36 3.02L8.9 2.71L9.44 2.43L10 2.16L10.56 1.92L11.13 1.7L11.71 1.51L12.29 1.33L12.88 1.18L13.47 1.06L14.07 0.95L14.66 0.87L15.26 0.82L15.87 0.78L16.47 0.77L17.07 0.78L17.67 0.82ZM192.87 89.63L192.27 89.68L191.67 89.76L191.07 89.87L190.48 89.99L189.89 90.14L189.31 90.31L188.73 90.51L188.16 90.73L187.6 90.97L187.04 91.23L186.5 91.52L185.96 91.83L185.43 92.16L184.92 92.52L184.41 92.9L183.92 93.3L183.44 93.72L182.97 94.17L182.97 94.17L94.17 182.97L93.72 183.44L93.3 183.92L92.9 184.41L92.52 184.91L92.16 185.43L91.83 185.96L91.52 186.5L91.23 187.04L90.97 187.6L90.73 188.16L90.51 188.73L90.32 189.31L90.14 189.89L89.99 190.48L89.87 191.07L89.76 191.67L89.68 192.27L89.63 192.87L89.59 193.47L89.58 194.07L89.59 194.67L89.63 195.28L89.68 195.88L89.76 196.48L89.87 197.07L89.99 197.66L90.14 198.25L90.32 198.83L90.51 199.41L90.73 199.98L90.97 200.55L91.23 201.1L91.52 201.65L91.83 202.18L92.16 202.71L92.52 203.23L92.9 203.73L93.3 204.23L93.72 204.71L94.17 205.17L149.67 260.67L260.67 149.67L205.17 94.17L204.71 93.72L204.23 93.3L203.73 92.9L203.23 92.52L202.71 92.16L202.19 91.83L201.65 91.52L201.1 91.23L200.55 90.97L199.98 90.73L199.41 90.51L198.84 90.31L198.25 90.14L197.67 89.99L197.07 89.87L196.48 89.76L195.88 89.68L195.28 89.63L194.68 89.59L194.07 89.58L193.47 89.59L192.87 89.63ZM126.27 67.42L125.67 67.48L125.07 67.56L124.47 67.66L123.88 67.79L123.29 67.94L122.71 68.11L122.13 68.31L121.56 68.52L121 68.77L120.44 69.03L119.9 69.32L119.36 69.63L118.83 69.96L118.32 70.31L117.81 70.69L117.32 71.1L116.84 71.52L116.37 71.97L71.97 116.37L71.52 116.84L71.1 117.32L70.7 117.81L70.32 118.32L69.96 118.84L69.63 119.36L69.32 119.9L69.03 120.45L68.76 121L68.52 121.57L68.3 122.14L68.11 122.71L67.93 123.29L67.79 123.88L67.66 124.47L67.55 125.07L67.47 125.67L67.42 126.27L67.38 126.87L67.37 127.47L67.38 128.07L67.42 128.67L67.47 129.27L67.55 129.87L67.66 130.47L67.79 131.06L67.93 131.65L68.11 132.23L68.3 132.8L68.52 133.38L68.76 133.94L69.03 134.49L69.32 135.04L69.63 135.58L69.96 136.11L70.32 136.62L70.7 137.13L71.1 137.62L71.52 138.1L71.97 138.57L83.07 149.67L149.67 83.07L138.57 71.97L138.1 71.52L137.63 71.1L137.13 70.7L136.63 70.32L136.11 69.96L135.58 69.63L135.05 69.32L134.5 69.03L133.94 68.77L133.38 68.53L132.81 68.31L132.23 68.11L131.65 67.94L131.06 67.79L130.47 67.67L129.88 67.56L129.28 67.48L128.68 67.42L128.07 67.39L127.47 67.38L126.87 67.39L126.27 67.42Z" id="a2iPnAd4pI"></path><path d="M292.66 192.14L293.24 192.2L293.81 192.28L294.37 192.37L294.94 192.49L295.5 192.64L296.05 192.8L296.6 192.99L297.14 193.19L297.68 193.42L298.21 193.68L298.73 193.95L299.24 194.24L299.74 194.56L300.24 194.9L300.72 195.26L301.19 195.65L301.64 196.05L302.09 196.48L354.94 249.33L365.18 239.09L379.93 224.34L386.16 218.12L386.65 217.62L387.1 217.19L387.56 216.79L388.03 216.4L388.51 216.04L389 215.7L389.5 215.39L390.01 215.09L390.53 214.82L391.06 214.57L391.6 214.34L392.14 214.13L392.69 213.94L393.25 213.78L393.81 213.63L394.37 213.51L394.94 213.42L395.51 213.34L396.08 213.28L396.65 213.25L397.22 213.24L397.8 213.25L398.37 213.28L398.94 213.34L399.51 213.42L400.08 213.51L400.64 213.63L401.2 213.78L401.76 213.94L402.31 214.13L402.85 214.34L403.39 214.57L403.92 214.82L404.44 215.09L404.95 215.39L405.45 215.7L405.94 216.04L406.43 216.4L406.9 216.79L407.35 217.19L407.8 217.62L408.22 218.06L408.63 218.52L409.01 218.99L409.37 219.47L409.71 219.96L410.03 220.47L410.32 220.98L410.6 221.5L410.85 222.03L411.08 222.56L411.29 223.11L411.47 223.66L411.64 224.21L411.78 224.77L411.9 225.33L412 225.9L412.08 226.47L412.13 227.04L412.16 227.62L412.17 228.19L412.16 228.76L412.13 229.34L412.08 229.91L412 230.48L411.9 231.04L411.78 231.61L411.64 232.17L411.47 232.72L411.29 233.27L411.08 233.81L410.85 234.35L410.6 234.88L410.32 235.4L410.03 235.91L409.71 236.41L409.37 236.91L409.01 237.39L408.63 237.86L408.22 238.31L407.8 238.76L397.22 249.33L450.08 302.19L451.09 303.23L452.07 304.3L453 305.4L453.89 306.51L454.74 307.65L455.55 308.81L456.32 309.99L457.04 311.18L457.73 312.4L458.38 313.63L458.98 314.87L459.55 316.13L460.07 317.41L460.56 318.69L461 319.99L461.4 321.3L461.76 322.62L462.08 323.95L462.36 325.28L462.6 326.62L462.8 327.96L462.96 329.31L463.07 330.67L463.15 332.02L463.19 333.38L463.18 334.74L463.14 336.09L463.05 337.45L462.92 338.8L462.75 340.15L462.54 341.5L462.29 342.83L462 344.17L461.67 345.49L461.3 346.81L460.89 348.11L460.44 349.41L459.94 350.69L459.41 351.96L458.83 353.22L471.22 365.61L472.5 366.94L473.71 368.31L474.86 369.72L475.94 371.16L476.96 372.64L477.91 374.14L478.79 375.68L479.61 377.24L480.37 378.83L481.06 380.44L481.68 382.07L482.24 383.72L482.73 385.38L483.15 387.06L483.52 388.75L483.81 390.45L484.04 392.16L484.2 393.88L484.3 395.6L484.34 397.32L484.3 399.04L484.2 400.76L484.04 402.48L483.81 404.19L483.52 405.89L483.15 407.58L482.73 409.26L482.24 410.93L481.68 412.58L481.06 414.21L480.37 415.81L479.61 417.4L478.79 418.96L477.91 420.5L476.96 422L475.94 423.48L474.86 424.92L473.71 426.33L472.5 427.7L471.22 429.03L460.66 439.6L507.61 486.47L508.04 486.91L508.44 487.37L508.83 487.84L509.19 488.32L509.53 488.81L509.85 489.32L510.14 489.83L510.42 490.35L510.67 490.88L510.9 491.41L511.11 491.96L511.3 492.51L511.46 493.06L511.6 493.62L511.72 494.18L511.82 494.75L511.9 495.32L511.96 495.89L511.99 496.46L512 497.04L511.99 497.61L511.96 498.19L511.9 498.76L511.83 499.33L511.73 499.89L511.61 500.46L511.47 501.02L511.3 501.57L511.12 502.12L510.91 502.67L510.68 503.2L510.43 503.73L510.16 504.25L509.86 504.76L509.54 505.27L509.21 505.76L508.85 506.24L508.46 506.71L508.06 507.17L507.63 507.61L507.19 508.04L506.73 508.44L506.26 508.83L505.78 509.19L505.29 509.53L504.79 509.84L504.28 510.14L503.76 510.41L503.23 510.67L502.7 510.9L502.16 511.1L501.61 511.29L501.05 511.46L500.49 511.6L499.93 511.72L499.36 511.82L498.79 511.9L498.22 511.95L497.65 511.99L497.08 512L496.5 511.99L495.93 511.96L495.36 511.9L494.79 511.83L494.22 511.73L493.66 511.61L493.1 511.47L492.54 511.31L491.99 511.12L491.45 510.91L490.91 510.69L490.38 510.43L489.86 510.16L489.34 509.87L488.84 509.55L488.35 509.21L487.86 508.85L487.39 508.46L486.93 508.06L486.49 507.63L439.52 460.74L428.94 471.32L427.61 472.6L426.23 473.81L424.83 474.96L423.38 476.04L421.91 477.06L420.4 478.01L418.87 478.89L417.31 479.71L415.72 480.47L414.11 481.15L412.48 481.78L410.83 482.33L409.17 482.83L407.49 483.25L405.8 483.61L404.09 483.91L402.38 484.14L400.67 484.3L398.95 484.4L397.23 484.43L395.5 484.4L393.78 484.3L392.07 484.14L390.36 483.91L388.65 483.61L386.96 483.25L385.28 482.83L383.62 482.33L381.97 481.78L380.34 481.15L378.73 480.47L377.14 479.71L375.58 478.89L374.05 478.01L372.54 477.06L371.06 476.04L369.62 474.96L368.21 473.81L366.84 472.6L365.51 471.32L353.12 458.93L351.87 459.5L350.6 460.04L349.32 460.53L348.02 460.98L346.72 461.39L345.4 461.77L344.08 462.1L342.75 462.39L341.41 462.64L340.07 462.85L338.72 463.02L337.37 463.14L336.02 463.23L334.66 463.28L333.3 463.29L331.95 463.25L330.59 463.18L329.24 463.06L327.89 462.9L326.54 462.71L325.2 462.47L323.87 462.19L322.54 461.87L321.23 461.51L319.92 461.11L318.62 460.66L317.33 460.18L316.06 459.66L314.8 459.09L313.55 458.49L312.32 457.84L311.1 457.15L309.9 456.42L308.72 455.65L307.56 454.84L306.42 453.99L305.31 453.1L304.21 452.17L303.14 451.19L302.09 450.18L249.23 397.32L238.66 407.89L238.22 408.32L237.76 408.72L237.29 409.11L236.81 409.47L236.32 409.81L235.82 410.13L235.3 410.42L234.78 410.69L234.25 410.95L233.72 411.18L233.17 411.38L232.63 411.57L232.07 411.73L231.51 411.88L230.95 412L230.38 412.1L229.81 412.17L229.24 412.23L228.67 412.26L228.09 412.27L227.52 412.26L226.95 412.23L226.37 412.17L225.8 412.1L225.24 412L224.67 411.88L224.11 411.74L223.56 411.57L223.01 411.39L222.47 411.18L221.93 410.95L221.4 410.7L220.88 410.42L220.37 410.13L219.87 409.81L219.38 409.47L218.89 409.11L218.42 408.73L217.97 408.32L217.52 407.89L217.1 407.45L216.69 406.99L216.31 406.52L215.95 406.04L215.61 405.55L215.29 405.05L214.99 404.53L214.72 404.01L214.47 403.48L214.24 402.95L214.03 402.4L213.84 401.85L213.68 401.3L213.54 400.74L213.42 400.18L213.32 399.61L213.24 399.04L213.19 398.47L213.15 397.9L213.14 397.32L213.15 396.75L213.19 396.17L213.24 395.6L213.32 395.03L213.42 394.47L213.54 393.9L213.68 393.34L213.84 392.79L214.03 392.24L214.24 391.7L214.47 391.16L214.72 390.63L214.99 390.11L215.29 389.6L215.61 389.1L215.95 388.6L216.31 388.12L216.69 387.65L217.1 387.19L217.52 386.75L249.23 355.04L196.38 302.19L195.95 301.74L195.55 301.28L195.16 300.81L194.8 300.33L194.46 299.84L194.15 299.34L193.85 298.83L193.58 298.3L193.32 297.78L193.09 297.24L192.89 296.7L192.7 296.15L192.54 295.59L192.39 295.03L192.27 294.47L192.18 293.9L192.1 293.33L192.04 292.76L192.01 292.19L192 291.61L192.01 291.04L192.04 290.47L192.1 289.89L192.18 289.33L192.27 288.76L192.39 288.19L192.54 287.64L192.7 287.08L192.89 286.53L193.09 285.99L193.32 285.45L193.58 284.92L193.85 284.4L194.15 283.89L194.46 283.39L194.8 282.9L195.16 282.41L195.55 281.94L195.95 281.49L196.38 281.04L196.82 280.62L197.28 280.21L197.75 279.83L198.23 279.47L198.72 279.13L199.23 278.81L199.74 278.51L200.26 278.24L200.79 277.99L201.32 277.76L201.87 277.55L202.42 277.37L202.97 277.2L203.53 277.06L204.09 276.94L204.66 276.84L205.23 276.76L205.8 276.71L206.38 276.68L206.95 276.67L207.52 276.68L208.1 276.71L208.67 276.76L209.24 276.84L209.81 276.94L210.37 277.06L210.93 277.2L211.48 277.37L212.03 277.55L212.58 277.76L213.11 277.99L213.64 278.24L214.16 278.51L214.67 278.81L215.18 279.13L215.67 279.47L216.15 279.83L216.62 280.21L217.08 280.62L217.52 281.04L270.38 333.9L333.8 270.47L280.95 217.62L280.52 217.18L280.11 216.72L279.73 216.25L279.37 215.77L279.03 215.27L278.71 214.77L278.42 214.26L278.14 213.74L277.89 213.21L277.66 212.67L277.45 212.13L277.27 211.58L277.1 211.03L276.96 210.47L276.84 209.9L276.74 209.34L276.66 208.77L276.61 208.2L276.58 207.62L276.57 207.05L276.58 206.47L276.61 205.9L276.66 205.33L276.74 204.76L276.84 204.19L276.96 203.63L277.1 203.07L277.27 202.52L277.45 201.97L277.66 201.42L277.89 200.89L278.14 200.36L278.42 199.84L278.71 199.32L279.03 198.82L279.37 198.33L279.73 197.85L280.11 197.38L280.52 196.92L280.95 196.48L281.39 196.05L281.85 195.65L282.32 195.26L282.8 194.9L283.29 194.56L283.79 194.24L284.31 193.95L284.83 193.68L285.35 193.42L285.89 193.19L286.43 192.99L286.98 192.8L287.54 192.64L288.1 192.49L288.66 192.37L289.23 192.28L289.8 192.2L290.37 192.14L290.94 192.11L291.52 192.1L292.09 192.11L292.66 192.14ZM386.65 450.18L387.1 450.6L387.56 451.01L388.02 451.39L388.51 451.75L389 452.09L389.5 452.41L390.01 452.7L390.53 452.97L391.06 453.23L391.6 453.46L392.14 453.66L392.69 453.85L393.25 454.01L393.81 454.16L394.37 454.28L394.94 454.37L395.51 454.45L396.08 454.5L396.65 454.54L397.23 454.55L397.8 454.54L398.37 454.5L398.95 454.45L399.52 454.37L400.08 454.27L400.65 454.15L401.21 454.01L401.76 453.85L402.31 453.66L402.85 453.45L403.39 453.22L403.92 452.97L404.44 452.7L404.95 452.41L405.45 452.09L405.95 451.75L406.43 451.39L406.9 451.01L407.35 450.6L407.8 450.18L417.56 440.41L431.81 426.16L450.08 407.89L450.51 407.45L450.91 406.99L451.29 406.52L451.65 406.04L451.99 405.55L452.31 405.05L452.6 404.54L452.88 404.02L453.13 403.49L453.36 402.95L453.57 402.41L453.75 401.86L453.92 401.3L454.06 400.74L454.18 400.18L454.28 399.61L454.35 399.04L454.41 398.47L454.44 397.9L454.45 397.32L454.44 396.75L454.41 396.17L454.35 395.6L454.28 395.03L454.18 394.46L454.06 393.9L453.92 393.34L453.75 392.79L453.57 392.24L453.36 391.69L453.13 391.16L452.88 390.63L452.6 390.11L452.31 389.59L451.99 389.09L451.65 388.6L451.29 388.12L450.91 387.65L450.51 387.19L450.08 386.75L439.51 376.18L376.08 439.61L386.65 450.18ZM334.33 312.22L317.56 329L270.38 376.18L323.23 429.03L323.67 429.46L324.13 429.86L324.6 430.25L325.08 430.61L325.57 430.95L326.07 431.26L326.58 431.56L327.1 431.83L327.63 432.08L328.17 432.31L328.71 432.52L329.26 432.71L329.82 432.87L330.38 433.01L330.94 433.13L331.51 433.23L332.08 433.31L332.65 433.36L333.22 433.4L333.8 433.41L334.37 433.4L334.95 433.36L335.52 433.31L336.09 433.23L336.66 433.13L337.22 433.01L337.78 432.87L338.33 432.71L338.88 432.52L339.43 432.31L339.96 432.09L340.49 431.83L341.01 431.56L341.53 431.27L342.03 430.95L342.52 430.61L343 430.25L343.47 429.87L343.93 429.46L344.37 429.04L344.37 429.03L428.94 344.47L429.36 344.02L429.77 343.57L430.15 343.1L430.51 342.62L430.85 342.12L431.17 341.62L431.46 341.11L431.74 340.59L431.99 340.06L432.22 339.53L432.42 338.98L432.61 338.43L432.77 337.88L432.92 337.32L433.04 336.75L433.14 336.19L433.21 335.62L433.27 335.05L433.3 334.47L433.31 333.9L433.3 333.32L433.27 332.75L433.21 332.18L433.14 331.61L433.04 331.04L432.92 330.48L432.77 329.92L432.61 329.36L432.42 328.81L432.22 328.27L431.99 327.73L431.74 327.21L431.46 326.68L431.17 326.17L430.85 325.67L430.51 325.18L430.15 324.7L429.77 324.23L429.36 323.77L428.94 323.33L376.08 270.47L358.98 287.58L334.33 312.22Z" id="caGgVJgvWF"></path></defs><g><g><g><use xlink:href="#a2iPnAd4pI" opacity="1" fill="#656565" fill-opacity="1"></use><g><use xlink:href="#a2iPnAd4pI" opacity="1" fill-opacity="0" stroke="#000000" stroke-width="1" stroke-opacity="0"></use></g></g><g><use xlink:href="#caGgVJgvWF" opacity="1" fill="#656565" fill-opacity="1"></use><g><use xlink:href="#caGgVJgvWF" opacity="1" fill-opacity="0" stroke="#000000" stroke-width="1" stroke-opacity="0"></use></g></g></g></g></svg>