<?xml version="1.0"?>
<svg xmlns="http://www.w3.org/2000/svg" height="512px" viewBox="0 0 512.00101 512" width="512px"><path d="m486.394531 4.394531-53.035156 53.03125-10.605469-10.605469c-17.546875-17.546874-46.09375-17.546874-63.640625 0l-12.429687 12.429688c-16.722656-7.964844-37.382813-5.042969-51.210938 8.78125l-53.03125 53.035156-10.605468-10.605468c-5.859376-5.859376-15.355469-5.859376-21.214844 0-5.855469 5.855468-5.855469 15.351562 0 21.210937 3.410156 3.410156 162.03125 162.027344 169.707031 169.707031 5.855469 5.855469 15.355469 5.855469 21.210937 0 5.859376-5.859375 5.859376-15.355468 0-21.214844l-10.605468-10.605468 53.035156-53.03125c13.828125-13.828125 16.746094-34.488282 8.78125-51.210938l12.429688-12.429687c17.585937-17.585938 17.589843-46.050781 0-63.640625l-10.605469-10.605469 53.035156-53.035156c5.855469-5.855469 5.855469-15.351563 0-21.210938-5.859375-5.859375-15.359375-5.859375-21.214844 0zm-84.855469 63.636719 42.425782 42.429688c5.863281 5.863281 5.863281 15.347656 0 21.210937l-10.605469 10.609375-63.640625-63.640625 10.609375-10.605469c5.847656-5.851562 15.363281-5.851562 21.210937-.003906zm21.214844 127.28125-53.035156 53.035156-106.0625-106.066406 53.03125-53.035156c5.847656-5.847656 15.363281-5.847656 21.214844 0v.003906l84.851562 84.847656c5.847656 5.851563 5.847656 15.367188 0 21.214844zm0 0" fill="#656565"/><path d="m25.597656 507.519531 47.128906-47.050781 10.617188 10.617188c17.542969 17.542968 46.09375 17.542968 63.640625 0l12.429687-12.433594c16.699219 7.957031 37.347657 5.078125 51.207032-8.78125l53.035156-53.03125 10.605469 10.605468c5.855469 5.855469 15.355469 5.859376 21.210937 0 5.859375-5.859374 5.859375-15.355468 0-21.214843l-31.816406-31.820313 53.03125-53.03125c5.859375-5.859375 5.859375-15.355468 0-21.214844-5.855469-5.855468-15.355469-5.855468-21.214844 0l-53.03125 53.035157-63.640625-63.640625 53.035157-53.03125c5.859374-5.859375 5.859374-15.355469 0-21.214844-5.859376-5.855469-15.355469-5.855469-21.214844 0l-53.03125 53.035156c-6.363282-6.363281-25.5-25.5-31.820313-31.820312-5.855469-5.859375-15.355469-5.859375-21.214843 0-5.855469 5.855468-5.855469 15.355468 0 21.210937l10.609374 10.609375-53.035156 53.03125c-13.828125 13.824219-16.75 34.484375-8.78125 51.207032l-12.429687 12.433593c-17.546875 17.542969-17.546875 46.09375 0 63.636719l10.597656 10.601562-47.113281 47.03125c-5.863282 5.851563-5.871094 15.351563-.019532 21.214844 5.835938 5.84375 15.335938 5.886719 21.214844.015625zm78.957032-57.648437c-15.191407-15.191406-26.804688-26.804688-42.425782-42.425782-5.847656-5.847656-5.847656-15.367187 0-21.214843l10.605469-10.605469 63.640625 63.640625-10.605469 10.605469c-5.851562 5.851562-15.363281 5.847656-21.214843 0zm-21.210938-127.277344 53.03125-53.035156c19.230469 19.230468 93.039062 93.039062 106.066406 106.066406l-53.03125 53.03125c-5.847656 5.851562-15.363281 5.851562-21.214844.003906v-.003906l-84.851562-84.851562c-5.851562-5.847657-5.851562-15.363282 0-21.210938zm0 0" fill="#656565"/></svg>
