<?xml version="1.0" encoding="UTF-8" standalone="no"?>
<!DOCTYPE svg PUBLIC "-//W3C//DTD SVG 1.1//EN" "http://www.w3.org/Graphics/SVG/1.1/DTD/svg11.dtd">
<svg version="1.1" xmlns="http://www.w3.org/2000/svg" xmlns:xlink="http://www.w3.org/1999/xlink" preserveAspectRatio="xMidYMid meet" viewBox="0 0 512 512" width="512" height="512"><defs><path d="M311.71 29.52L312.56 29.6L313.41 29.71L314.25 29.85L315.09 30.03L315.92 30.24L316.75 30.48L317.56 30.75L318.37 31.06L319.17 31.4L319.96 31.77L320.73 32.18L321.49 32.61L322.24 33.08L322.98 33.59L323.69 34.12L324.39 34.69L325.07 35.29L325.74 35.92L326.37 36.58L326.98 37.26L327.55 37.96L328.09 38.67L328.59 39.4L329.07 40.15L329.51 40.91L329.92 41.68L330.29 42.46L330.64 43.26L330.95 44.07L331.23 44.88L331.47 45.71L331.69 46.54L331.87 47.38L332.02 48.22L332.13 49.06L332.22 49.91L332.27 50.77L332.29 51.62L332.27 52.47L332.22 53.32L332.15 54.17L332.03 55.02L331.89 55.86L331.71 56.7L331.5 57.54L331.26 58.36L330.99 59.18L330.68 59.99L330.34 60.78L329.97 61.57L329.56 62.35L329.13 63.11L328.66 63.86L328.15 64.59L327.62 65.31L327.05 66.01L326.45 66.69L325.82 67.35L320.59 72.6L388.86 140.51L393.35 145.15L397.63 149.91L401.7 154.8L405.56 159.79L409.21 164.9L412.64 170.11L415.87 175.41L418.89 180.81L421.69 186.29L424.29 191.84L426.67 197.47L428.84 203.17L430.81 208.92L432.56 214.73L434.1 220.59L435.43 226.48L436.55 232.42L437.46 238.38L438.16 244.36L438.65 250.37L438.93 256.38L438.99 262.4L438.85 268.42L438.49 274.43L437.93 280.43L437.15 286.4L436.17 292.36L434.97 298.28L433.56 304.16L431.94 310L430.11 315.79L428.07 321.53L425.81 327.2L423.35 332.81L420.68 338.34L417.79 343.79L414.69 349.16L411.39 354.43L407.87 359.61L404.14 364.68L441.93 402.27L442.56 402.93L443.17 403.61L443.74 404.3L444.28 405.02L444.78 405.75L445.26 406.49L445.7 407.25L446.11 408.03L446.48 408.81L446.83 409.61L447.14 410.41L447.42 411.23L447.66 412.05L447.88 412.88L448.06 413.72L448.21 414.56L448.32 415.41L448.41 416.26L448.46 417.11L448.48 417.97L448.46 418.82L448.42 419.67L448.34 420.52L448.23 421.37L448.08 422.21L447.91 423.05L447.7 423.88L447.45 424.71L447.18 425.52L446.87 426.33L446.53 427.13L446.16 427.92L445.76 428.69L445.32 429.45L444.85 430.2L444.35 430.94L443.81 431.65L443.24 432.35L442.64 433.03L442.01 433.7L441.35 434.33L440.67 434.94L439.98 435.51L439.26 436.05L438.53 436.55L437.79 437.03L437.03 437.47L436.25 437.88L435.47 438.25L434.67 438.6L433.87 438.91L433.05 439.19L432.23 439.43L431.39 439.65L430.56 439.83L429.71 439.98L428.87 440.09L428.02 440.18L427.17 440.23L426.31 440.25L425.46 440.23L424.61 440.18L423.76 440.11L422.91 439.99L422.07 439.85L421.23 439.67L420.4 439.46L419.57 439.22L418.76 438.95L417.95 438.64L417.15 438.3L416.36 437.93L415.59 437.52L414.83 437.09L414.08 436.62L413.34 436.11L412.63 435.58L411.93 435.01L411.25 434.41L410.58 433.78L372.8 396.19L367.75 399.94L362.59 403.49L357.33 406.82L351.98 409.95L346.55 412.86L341.03 415.57L335.44 418.06L329.78 420.34L324.05 422.41L318.27 424.27L312.44 425.92L306.56 427.36L300.65 428.59L294.7 429.61L288.72 430.42L282.73 431.02L276.72 431.4L270.7 431.58L264.68 431.54L258.67 431.3L252.66 430.84L246.67 430.17L240.71 429.29L234.77 428.2L228.86 426.9L223 425.39L217.18 423.67L211.42 421.74L205.71 419.59L200.07 417.24L194.5 414.67L189.01 411.9L183.6 408.91L178.28 405.71L173.05 402.3L167.92 398.68L162.91 394.85L158 390.81L153.22 386.55L148.56 382.09L80.29 314.17L75.06 319.43L74.4 320.06L73.73 320.67L73.03 321.24L72.32 321.78L71.58 322.28L70.84 322.76L70.08 323.2L69.31 323.61L68.52 323.98L67.72 324.33L66.92 324.64L66.1 324.92L65.28 325.16L64.45 325.38L63.61 325.56L62.77 325.71L61.92 325.82L61.07 325.91L60.22 325.96L59.37 325.98L58.51 325.96L57.66 325.92L56.81 325.84L55.96 325.72L55.12 325.58L54.28 325.4L53.45 325.19L52.63 324.95L51.81 324.68L51 324.37L50.2 324.03L49.41 323.66L48.64 323.25L47.88 322.82L47.13 322.35L46.4 321.84L45.68 321.31L44.98 320.74L44.3 320.14L43.64 319.51L43 318.85L42.4 318.17L41.82 317.47L41.29 316.76L40.78 316.03L40.31 315.28L39.86 314.52L39.46 313.75L39.08 312.97L38.74 312.17L38.42 311.36L38.15 310.55L37.9 309.72L37.69 308.89L37.5 308.06L37.36 307.21L37.24 306.37L37.16 305.52L37.1 304.66L37.09 303.81L37.1 302.96L37.15 302.11L37.23 301.26L37.34 300.41L37.48 299.57L37.66 298.73L37.87 297.9L38.11 297.07L38.38 296.25L38.69 295.45L39.03 294.65L39.4 293.86L39.81 293.08L40.25 292.32L40.72 291.57L41.22 290.84L41.75 290.13L42.32 289.43L42.92 288.74L43.55 288.08L101.02 230.31L43.25 172.85L42.62 172.19L42.01 171.51L41.44 170.82L40.9 170.1L40.39 169.37L39.92 168.63L39.48 167.87L39.07 167.09L38.69 166.31L38.35 165.51L38.04 164.7L37.76 163.89L37.51 163.06L37.3 162.23L37.12 161.4L36.97 160.55L36.85 159.71L36.77 158.86L36.72 158.01L36.7 157.15L36.72 156.3L36.76 155.45L36.84 154.6L36.95 153.75L37.1 152.91L37.27 152.07L37.48 151.24L37.73 150.41L38 149.59L38.31 148.79L38.65 147.99L39.02 147.2L39.42 146.43L39.86 145.66L40.33 144.92L40.83 144.18L41.37 143.47L41.94 142.77L42.54 142.08L43.17 141.42L43.83 140.79L44.51 140.18L45.2 139.61L45.92 139.07L46.65 138.57L47.39 138.09L48.15 137.65L48.93 137.24L49.71 136.87L50.51 136.52L51.31 136.21L52.13 135.93L52.95 135.69L53.78 135.47L54.62 135.29L55.46 135.14L56.31 135.03L57.16 134.94L58.01 134.89L58.87 134.87L59.72 134.89L60.57 134.93L61.42 135.01L62.27 135.12L63.11 135.27L63.95 135.44L64.78 135.65L65.61 135.9L66.42 136.17L67.23 136.48L68.03 136.82L68.82 137.19L69.59 137.59L70.35 138.03L71.1 138.5L71.84 139L72.55 139.54L73.25 140.11L73.93 140.71L74.6 141.34L132.36 198.8L205.5 125.28L147.73 67.82L147.1 67.16L146.49 66.48L145.92 65.78L145.38 65.07L144.88 64.34L144.4 63.59L143.96 62.83L143.55 62.06L143.18 61.28L142.83 60.48L142.52 59.67L142.24 58.86L142 58.03L141.78 57.2L141.6 56.36L141.45 55.52L141.34 54.68L141.25 53.83L141.2 52.97L141.18 52.12L141.2 51.27L141.24 50.42L141.32 49.57L141.43 48.72L141.58 47.88L141.76 47.04L141.96 46.21L142.21 45.38L142.48 44.56L142.79 43.75L143.13 42.96L143.5 42.17L143.9 41.39L144.34 40.63L144.81 39.88L145.31 39.15L145.85 38.43L146.42 37.73L147.02 37.05L147.65 36.39L148.31 35.75L148.99 35.15L149.68 34.58L150.4 34.04L151.13 33.53L151.87 33.06L152.63 32.62L153.41 32.21L154.19 31.83L154.99 31.49L155.8 31.18L156.61 30.9L157.43 30.65L158.27 30.44L159.1 30.26L159.95 30.11L160.79 29.99L161.64 29.91L162.49 29.86L163.35 29.84L164.2 29.85L165.05 29.9L165.9 29.98L166.75 30.09L167.59 30.24L168.43 30.41L169.26 30.62L170.09 30.86L170.91 31.14L171.71 31.45L172.51 31.79L173.3 32.16L174.07 32.56L174.84 33L175.58 33.47L176.32 33.97L177.03 34.51L177.73 35.07L178.41 35.68L179.08 36.31L236.84 93.77L294.31 36.01L294.97 35.37L295.65 34.77L296.34 34.19L297.06 33.66L297.79 33.15L298.53 32.68L299.29 32.23L300.06 31.83L300.85 31.45L301.65 31.1L302.45 30.79L303.27 30.51L304.09 30.27L304.92 30.05L305.76 29.87L306.6 29.73L307.45 29.61L308.3 29.53L309.15 29.47L310 29.46L310.86 29.47L311.71 29.52ZM188.67 359.85L193.47 362.57L198.23 365.13L202.96 367.53L207.66 369.77L212.31 371.86L216.93 373.78L221.52 375.55L226.07 377.16L230.59 378.62L235.07 379.91L239.51 381.05L243.92 382.03L248.3 382.84L252.64 383.51L256.94 384.01L261.21 384.36L265.44 384.54L269.64 384.57L273.8 384.44L277.93 384.15L282.02 383.71L286.08 383.11L290.1 382.34L294.08 381.42L298.03 380.35L301.95 379.11L305.83 377.71L309.67 376.16L313.48 374.45L317.25 372.58L320.99 370.55L324.69 368.37L328.36 366.02L331.99 363.52L335.59 360.86L339.15 358.04L342.68 355.07L346.17 351.93L349.62 348.64L353.04 345.19L356.37 341.65L359.54 338.07L362.56 334.47L365.43 330.84L368.14 327.18L370.7 323.49L373.11 319.77L375.37 316.02L377.47 312.24L379.42 308.44L381.22 304.6L382.86 300.74L384.35 296.85L385.69 292.92L386.87 288.97L387.91 284.99L388.79 280.98L389.51 276.94L390.09 272.88L390.51 268.78L390.78 264.66L390.89 260.5L390.86 256.32L390.67 252.1L390.32 247.86L389.83 243.59L389.18 239.29L388.38 234.96L387.42 230.6L386.32 226.22L385.06 221.8L383.64 217.36L382.08 212.88L380.36 208.38L378.49 203.85L376.46 199.28L374.29 194.69L371.96 190.07L369.47 185.43L366.84 180.75L289.52 103.84L111.36 282.94L188.67 359.85Z" id="a1r5e2cHnW"></path></defs><g><g><g><use xlink:href="#a1r5e2cHnW" opacity="1" fill="#656565" fill-opacity="1"></use><g><use xlink:href="#a1r5e2cHnW" opacity="1" fill-opacity="0" stroke="#000000" stroke-width="1" stroke-opacity="0"></use></g></g></g></g></svg>