<svg width="16" height="16" viewBox="0 0 16 16" fill="none" xmlns="http://www.w3.org/2000/svg">
<path fill-rule="evenodd" clip-rule="evenodd" d="M1 2.5L1.5 2H3.5L4 2.5V13.5L3.5 14H1.5L1 13.5V2.5ZM2 3V13H3V3H2ZM5.5 2L5 2.5V13.5L5.5 14H5.84822L6.41965 13H6V3H7V11.9844L8 10.2344V2.5L7.5 2H5.5ZM15.5865 13.0109L15.7523 12.6553L11.9901 2.31865L11.3492 2.01981L9.46985 2.70385L9.17101 3.34471L10.2473 6.30169L10.8974 5.16401L10.2817 3.47254L11.2214 3.13052L13.4685 9.30435L15.5865 13.0109Z" fill="#424242"/>
<path fill-rule="evenodd" clip-rule="evenodd" d="M7 14H15L11 7L7 14ZM9.15397 12.75H12.846L11 9.51946L9.15397 12.75Z" fill="#FFCC00"/>
<path fill-rule="evenodd" clip-rule="evenodd" d="M7 14H15L11 7L7 14ZM9.15397 12.75H12.846L11 9.51946L9.15397 12.75Z" fill="#DDB100"/>
</svg>
