<svg width="16" height="16" viewBox="0 0 16 16" fill="none" xmlns="http://www.w3.org/2000/svg">
<path opacity="0.95" fill-rule="evenodd" clip-rule="evenodd" d="M1.5 2L1 2.5V13.5L1.5 14H3.5L4 13.5V2.5L3.5 2H1.5ZM2 13V3H3V13H2ZM5 2.5L5.5 2H7.5L8 2.5V13.5L7.5 14H5.5L5 13.5V2.5ZM6 3V13H7V3H6ZM9.46985 2.70387L9.17101 3.34472L9.34202 3.81457L10.2817 3.47255L11.2214 3.13053L12.1611 2.78851L11.9901 2.31866L11.3492 2.01983L9.46985 2.70387ZM12.5031 3.7282L11.5634 4.07022L12.2475 5.94961L13.1872 5.60759L12.5031 3.7282ZM13.5292 6.54728L12.5895 6.8893L13.2735 8.76869L14.2132 8.42667L13.5292 6.54728ZM14.5552 9.36636L13.6155 9.70838L14.2996 11.5878L15.2393 11.2457L14.5552 9.36636ZM15.5813 12.1854L14.6416 12.5275L13.7019 12.8695L12.7622 13.2115L12.9332 13.6813L13.5741 13.9802L15.4535 13.2961L15.7523 12.6553L15.5813 12.1854ZM12.4202 12.2718L13.3599 11.9298L12.6759 10.0504L11.7362 10.3924L12.4202 12.2718ZM11.3941 9.45273L12.3338 9.11071L11.6498 7.23132L10.7101 7.57334L11.3941 9.45273ZM10.3681 6.63365L11.3078 6.29163L10.6237 4.41224L9.68404 4.75426L10.3681 6.63365Z" fill="#616161"/>
</svg>
