<?xml version="1.0" encoding="UTF-8" standalone="no"?>
<!DOCTYPE svg PUBLIC "-//W3C//DTD SVG 1.1//EN" "http://www.w3.org/Graphics/SVG/1.1/DTD/svg11.dtd">
<svg version="1.1" xmlns="http://www.w3.org/2000/svg" xmlns:xlink="http://www.w3.org/1999/xlink" preserveAspectRatio="xMidYMid meet" viewBox="0 0 512 512" width="512" height="512"><defs><path d="M289.96 64.12L290.6 64.21L291.22 64.33L291.84 64.47L292.46 64.63L293.06 64.82L293.65 65.03L294.23 65.26L294.8 65.51L295.35 65.79L295.9 66.08L296.43 66.4L296.95 66.73L297.45 67.09L297.94 67.46L298.41 67.85L298.87 68.26L299.31 68.69L299.74 69.13L300.15 69.59L300.54 70.06L300.91 70.55L301.27 71.05L301.6 71.57L301.92 72.1L302.21 72.65L302.49 73.2L302.74 73.77L302.97 74.35L303.18 74.94L303.37 75.54L303.53 76.16L303.67 76.78L303.79 77.4L303.88 78.04L303.95 78.69L303.99 79.34L304 80L304 208L434.29 208L434.85 208.01L435.41 208.05L435.96 208.1L436.51 208.18L437.05 208.28L437.58 208.4L438.11 208.54L438.62 208.7L439.13 208.88L439.62 209.08L440.11 209.3L440.59 209.53L441.05 209.78L441.51 210.05L441.95 210.34L442.39 210.65L442.8 210.97L443.21 211.3L443.6 211.65L443.98 212.02L444.35 212.4L444.7 212.79L445.03 213.2L445.35 213.61L445.66 214.05L445.95 214.49L446.22 214.95L446.47 215.41L446.7 215.89L446.92 216.38L447.12 216.87L447.3 217.38L447.46 217.89L447.6 218.42L447.72 218.95L447.82 219.49L447.9 220.04L447.95 220.59L447.99 221.15L448 221.71L448 290.29L447.99 290.85L447.95 291.41L447.9 291.96L447.82 292.51L447.72 293.05L447.6 293.58L447.46 294.11L447.3 294.62L447.12 295.13L446.92 295.62L446.7 296.11L446.47 296.59L446.22 297.05L445.95 297.51L445.66 297.95L445.35 298.39L445.03 298.8L444.7 299.21L444.35 299.6L443.98 299.98L443.6 300.35L443.21 300.7L442.8 301.03L442.39 301.35L441.95 301.66L441.51 301.95L441.05 302.22L440.59 302.47L440.11 302.7L439.62 302.92L439.13 303.12L438.62 303.3L438.11 303.46L437.58 303.6L437.05 303.72L436.51 303.82L435.96 303.9L435.41 303.95L434.85 303.99L434.29 304L304 304L304 432L303.99 432.66L303.95 433.31L303.88 433.96L303.79 434.6L303.67 435.22L303.53 435.84L303.37 436.46L303.18 437.06L302.97 437.65L302.74 438.23L302.49 438.8L302.21 439.35L301.92 439.9L301.6 440.43L301.27 440.95L300.91 441.45L300.54 441.94L300.15 442.41L299.74 442.87L299.31 443.31L298.87 443.74L298.41 444.15L297.94 444.54L297.45 444.91L296.95 445.27L296.43 445.6L295.9 445.92L295.35 446.21L294.8 446.49L294.23 446.74L293.65 446.97L293.06 447.18L292.46 447.37L291.84 447.53L291.22 447.67L290.6 447.79L289.96 447.88L289.31 447.95L288.66 447.99L288 448L224 448L223.34 447.99L222.69 447.95L222.04 447.88L221.4 447.79L220.78 447.67L220.16 447.53L219.54 447.37L218.94 447.18L218.35 446.97L217.77 446.74L217.2 446.49L216.65 446.21L216.1 445.92L215.57 445.6L215.05 445.27L214.55 444.91L214.06 444.54L213.59 444.15L213.13 443.74L212.69 443.31L212.26 442.87L211.85 442.41L211.46 441.94L211.09 441.45L210.73 440.95L210.4 440.43L210.08 439.9L209.79 439.35L209.51 438.8L209.26 438.23L209.03 437.65L208.82 437.06L208.63 436.46L208.47 435.84L208.33 435.22L208.21 434.6L208.12 433.96L208.05 433.31L208.01 432.66L208 432L208 304L77.71 304L77.15 303.99L76.59 303.95L76.04 303.9L75.49 303.82L74.95 303.72L74.42 303.6L73.89 303.46L73.38 303.3L72.87 303.12L72.38 302.92L71.89 302.7L71.41 302.47L70.95 302.22L70.49 301.95L70.05 301.66L69.61 301.35L69.2 301.03L68.79 300.7L68.4 300.35L68.02 299.98L67.65 299.6L67.3 299.21L66.97 298.8L66.65 298.39L66.34 297.95L66.05 297.51L65.78 297.05L65.53 296.59L65.3 296.11L65.08 295.62L64.88 295.13L64.7 294.62L64.54 294.11L64.4 293.58L64.28 293.05L64.18 292.51L64.1 291.96L64.05 291.41L64.01 290.85L64 290.29L64 221.71L64.01 221.15L64.05 220.59L64.1 220.04L64.18 219.49L64.28 218.95L64.4 218.42L64.54 217.89L64.7 217.38L64.88 216.87L65.08 216.38L65.3 215.89L65.53 215.41L65.78 214.95L66.05 214.49L66.34 214.05L66.65 213.61L66.97 213.2L67.3 212.79L67.65 212.4L68.02 212.02L68.4 211.65L68.79 211.3L69.2 210.97L69.61 210.65L70.05 210.34L70.49 210.05L70.95 209.78L71.41 209.53L71.89 209.3L72.38 209.08L72.87 208.88L73.38 208.7L73.89 208.54L74.42 208.4L74.95 208.28L75.49 208.18L76.04 208.1L76.59 208.05L77.15 208.01L77.71 208L208 208L208 80L208.01 79.34L208.05 78.69L208.12 78.04L208.21 77.4L208.33 76.78L208.47 76.16L208.63 75.54L208.82 74.94L209.03 74.35L209.26 73.77L209.51 73.2L209.79 72.65L210.08 72.1L210.4 71.57L210.73 71.05L211.09 70.55L211.46 70.06L211.85 69.59L212.26 69.13L212.69 68.69L213.13 68.26L213.59 67.85L214.06 67.46L214.55 67.09L215.05 66.73L215.57 66.4L216.1 66.08L216.65 65.79L217.2 65.51L217.77 65.26L218.35 65.03L218.94 64.82L219.54 64.63L220.16 64.47L220.78 64.33L221.4 64.21L222.04 64.12L222.69 64.05L223.34 64.01L224 64L288 64L288.66 64.01L289.31 64.05L289.31 64.05L289.96 64.12Z" id="a5WApEs4uL"></path><mask id="maskjNYkOmRw5" x="54" y="54" width="404" height="404" maskUnits="userSpaceOnUse"><rect x="54" y="54" width="404" height="404" fill="white"></rect><use xlink:href="#a5WApEs4uL" opacity="1" fill="black"></use></mask></defs><g><g><g><use xlink:href="#a5WApEs4uL" opacity="1" fill="#c5c5c5" fill-opacity="1"></use><g mask="url(#maskjNYkOmRw5)"><use xlink:href="#a5WApEs4uL" opacity="1" fill-opacity="0" stroke="#2d2d30" stroke-width="10" stroke-opacity="1"></use></g></g></g></g></svg>