<?xml version="1.0" encoding="UTF-8" standalone="no"?>
<!DOCTYPE svg PUBLIC "-//W3C//DTD SVG 1.1//EN" "http://www.w3.org/Graphics/SVG/1.1/DTD/svg11.dtd">
<svg version="1.1" xmlns="http://www.w3.org/2000/svg" xmlns:xlink="http://www.w3.org/1999/xlink" preserveAspectRatio="xMidYMid meet" viewBox="0 0 512 512" width="512" height="512"><defs><path d="M88.64 0.09L90.28 0.21L91.9 0.37L93.5 0.57L95.09 0.82L96.66 1.11L98.22 1.44L99.75 1.82L101.27 2.23L102.76 2.69L104.24 3.18L105.69 3.71L107.12 4.28L108.52 4.89L109.9 5.53L111.26 6.21L112.59 6.92L113.89 7.67L115.16 8.45L116.41 9.27L117.63 10.11L118.81 10.99L119.97 11.9L121.09 12.84L122.19 13.8L123.24 14.8L124.27 15.82L125.26 16.87L126.21 17.95L127.13 19.05L128.01 20.18L128.85 21.33L129.65 22.5L130.41 23.7L131.13 24.92L131.81 26.16L132.45 27.42L133.04 28.7L133.59 30L255.99 30L258.1 30.04L260.19 30.15L262.25 30.33L264.29 30.59L266.3 30.92L268.28 31.31L270.24 31.77L272.16 32.3L274.05 32.89L275.9 33.54L277.72 34.26L279.5 35.03L281.24 35.86L282.94 36.75L284.6 37.7L286.21 38.69L287.78 39.74L289.29 40.85L290.76 42L292.18 43.2L293.54 44.44L294.85 45.73L296.1 47.06L297.3 48.44L298.44 49.86L299.51 51.31L300.52 52.81L301.47 54.34L302.35 55.9L303.16 57.5L303.9 59.13L304.58 60.79L305.18 62.48L305.7 64.2L306.15 65.94L306.52 67.71L306.81 69.5L307.02 71.31L307.15 73.15L307.19 75L307.21 75.62L307.25 76.23L307.32 76.83L307.41 77.43L307.54 78.02L307.69 78.6L307.86 79.17L308.06 79.74L308.29 80.29L308.53 80.83L308.81 81.37L309.1 81.89L309.41 82.4L309.75 82.9L310.11 83.38L310.49 83.85L310.89 84.31L311.3 84.76L311.74 85.19L312.2 85.6L312.67 86L313.16 86.39L313.66 86.75L314.18 87.1L314.72 87.44L315.27 87.75L315.84 88.05L316.42 88.32L317.01 88.58L317.62 88.82L318.24 89.04L318.87 89.23L319.51 89.41L320.16 89.56L320.82 89.69L321.49 89.8L322.17 89.89L322.86 89.95L323.55 89.99L324.26 90L494.92 90L495.93 90.02L496.92 90.1L497.88 90.22L498.82 90.38L499.74 90.59L500.64 90.85L501.5 91.14L502.34 91.47L503.15 91.84L503.94 92.24L504.69 92.68L505.41 93.15L506.1 93.66L506.76 94.19L507.38 94.75L507.97 95.34L508.52 95.95L509.03 96.59L509.51 97.25L509.95 97.93L510.35 98.62L510.71 99.34L511.03 100.07L511.3 100.81L511.53 101.57L511.72 102.33L511.86 103.11L511.95 103.89L512 104.68L512 105.48L511.95 106.27L511.85 107.07L511.7 107.87L511.49 108.67L511.24 109.46L510.92 110.25L510.56 111.03L510.14 111.8L509.66 112.57L509.12 113.32L447.17 195L509.12 276.68L509.66 277.43L510.13 278.19L510.56 278.97L510.92 279.75L511.23 280.54L511.49 281.33L511.69 282.13L511.85 282.92L511.95 283.72L512 284.52L512 285.31L511.95 286.1L511.86 286.89L511.72 287.66L511.53 288.43L511.3 289.18L511.03 289.93L510.71 290.66L510.35 291.37L509.95 292.07L509.52 292.75L509.04 293.41L508.52 294.04L507.97 294.66L507.38 295.24L506.76 295.8L506.11 296.34L505.42 296.84L504.7 297.31L503.94 297.75L503.16 298.16L502.35 298.53L501.51 298.86L500.64 299.15L499.75 299.41L498.83 299.62L497.89 299.78L496.92 299.9L495.93 299.98L494.92 300L324.26 300L322.59 299.98L320.95 299.91L319.31 299.79L317.69 299.63L316.08 299.43L314.5 299.18L312.92 298.89L311.37 298.56L309.84 298.18L308.32 297.77L306.83 297.31L305.35 296.82L303.9 296.29L302.47 295.72L301.07 295.11L299.69 294.47L298.33 293.79L297 293.08L295.7 292.33L294.42 291.55L293.18 290.73L291.96 289.89L290.77 289.01L289.62 288.1L288.49 287.16L287.4 286.2L286.34 285.2L285.32 284.18L284.33 283.13L283.38 282.05L282.46 280.95L281.58 279.82L280.74 278.67L279.94 277.5L279.18 276.3L278.46 275.08L277.78 273.84L277.14 272.58L276.54 271.3L275.99 270L136.53 270L136.53 482L153.6 482L154.3 482.01L155 482.05L155.68 482.11L156.36 482.2L157.03 482.3L157.7 482.44L158.35 482.59L158.99 482.76L159.62 482.96L160.24 483.18L160.84 483.42L161.44 483.67L162.02 483.95L162.59 484.25L163.14 484.56L163.67 484.89L164.2 485.24L164.7 485.61L165.19 485.99L165.66 486.39L166.12 486.81L166.55 487.24L166.97 487.68L167.37 488.14L167.75 488.61L168.1 489.1L168.44 489.6L168.76 490.11L169.05 490.63L169.32 491.16L169.57 491.71L169.79 492.26L169.99 492.82L170.17 493.4L170.31 493.98L170.44 494.57L170.54 495.16L170.61 495.77L170.65 496.38L170.66 497L170.65 497.62L170.61 498.23L170.54 498.84L170.44 499.43L170.31 500.02L170.17 500.6L169.99 501.18L169.79 501.74L169.57 502.29L169.32 502.84L169.05 503.37L168.76 503.89L168.44 504.4L168.1 504.9L167.75 505.39L167.37 505.86L166.97 506.32L166.55 506.76L166.12 507.19L165.66 507.61L165.19 508.01L164.7 508.39L164.2 508.76L163.67 509.11L163.14 509.44L162.59 509.75L162.02 510.05L161.44 510.33L160.84 510.58L160.24 510.82L159.62 511.04L158.99 511.24L158.35 511.41L157.7 511.56L157.03 511.7L156.36 511.8L155.68 511.89L155 511.95L154.3 511.99L153.6 512L17.07 512L16.36 511.99L15.67 511.95L14.98 511.89L14.3 511.8L13.63 511.7L12.97 511.56L12.31 511.41L11.67 511.24L11.04 511.04L10.42 510.82L9.82 510.58L9.22 510.33L8.64 510.05L8.08 509.75L7.52 509.44L6.99 509.11L6.47 508.76L5.96 508.39L5.47 508.01L5 507.61L4.54 507.19L4.11 506.76L3.69 506.32L3.29 505.86L2.91 505.39L2.56 504.9L2.22 504.4L1.9 503.89L1.61 503.37L1.34 502.84L1.09 502.29L0.87 501.74L0.67 501.18L0.5 500.6L0.35 500.02L0.22 499.43L0.13 498.84L0.06 498.23L0.01 497.62L0 497L0.01 496.38L0.06 495.77L0.13 495.16L0.22 494.57L0.35 493.98L0.5 493.4L0.67 492.82L0.87 492.26L1.09 491.71L1.34 491.16L1.61 490.63L1.9 490.11L2.22 489.6L2.56 489.1L2.91 488.61L3.29 488.14L3.69 487.68L4.11 487.24L4.54 486.81L5 486.39L5.47 485.99L5.96 485.61L6.47 485.24L6.99 484.89L7.52 484.56L8.08 484.25L8.64 483.95L9.22 483.67L9.82 483.42L10.42 483.18L11.04 482.96L11.67 482.76L12.31 482.59L12.97 482.44L13.63 482.3L14.3 482.2L14.98 482.11L15.67 482.05L16.36 482.01L17.07 482L34.13 482L34.13 45L34.18 43.15L34.3 41.31L34.51 39.5L34.8 37.71L35.17 35.94L35.62 34.2L36.15 32.48L36.75 30.79L37.42 29.13L38.16 27.5L38.97 25.9L39.86 24.34L40.8 22.81L41.81 21.31L42.89 19.86L44.02 18.44L45.22 17.06L46.47 15.73L47.78 14.44L49.14 13.2L50.56 12L52.03 10.85L53.55 9.74L55.11 8.69L56.73 7.7L58.38 6.75L60.08 5.86L61.82 5.03L63.6 4.26L65.42 3.54L67.28 2.89L69.17 2.3L71.09 1.77L73.04 1.31L75.03 0.92L77.04 0.59L79.08 0.33L81.14 0.15L83.22 0.04L85.33 0L86.99 0.02L88.64 0.09ZM83.93 30.05L83.25 30.11L82.57 30.2L81.9 30.31L81.23 30.44L80.58 30.59L79.94 30.77L79.31 30.96L78.69 31.18L78.09 31.42L77.49 31.68L76.91 31.95L76.35 32.25L75.8 32.57L75.26 32.9L74.74 33.25L74.23 33.62L73.74 34L73.27 34.4L72.81 34.81L72.38 35.24L71.96 35.69L71.56 36.15L71.18 36.62L70.83 37.1L70.49 37.6L70.17 38.11L69.88 38.63L69.61 39.17L69.36 39.71L69.14 40.26L68.94 40.83L68.76 41.4L68.61 41.98L68.49 42.57L68.39 43.17L68.32 43.77L68.28 44.38L68.26 45L68.26 482L102.4 482L102.4 45L102.38 44.38L102.34 43.77L102.27 43.17L102.17 42.57L102.05 41.98L101.9 41.4L101.73 40.83L101.53 40.26L101.3 39.71L101.05 39.17L100.78 38.63L100.49 38.11L100.17 37.6L99.84 37.1L99.48 36.62L99.1 36.15L98.7 35.69L98.28 35.24L97.85 34.81L97.39 34.4L96.92 34L96.43 33.62L95.93 33.25L95.4 32.9L94.87 32.57L94.31 32.25L93.75 31.95L93.17 31.68L92.57 31.42L91.97 31.18L91.35 30.96L90.72 30.77L90.08 30.59L89.43 30.44L88.77 30.31L88.1 30.2L87.42 30.11L86.73 30.05L86.03 30.01L85.33 30L84.63 30.01L83.93 30.05ZM307.2 255.41L307.23 255.82L307.29 256.23L307.36 256.64L307.46 257.04L307.57 257.45L307.71 257.85L307.87 258.25L308.05 258.64L308.26 259.04L308.48 259.43L308.73 259.82L308.99 260.21L309.28 260.6L309.59 260.99L309.92 261.37L310.27 261.75L310.65 262.13L311.04 262.51L311.46 262.89L311.89 263.26L312.35 263.63L312.83 264L313.33 264.37L313.86 264.74L314.4 265.1L314.97 265.46L315.55 265.82L316.16 266.18L316.79 266.54L317.44 266.89L318.11 267.25L318.81 267.6L319.52 267.95L320.26 268.29L321.01 268.64L321.79 268.98L322.59 269.32L323.41 269.66L324.26 270L463.03 270L412.45 203.32L412.17 202.94L411.91 202.55L411.66 202.16L411.42 201.77L411.2 201.37L410.99 200.96L410.8 200.55L410.62 200.14L410.45 199.72L410.3 199.3L410.17 198.88L410.05 198.46L409.94 198.03L409.85 197.6L409.77 197.17L409.7 196.74L409.65 196.3L409.62 195.87L409.59 195.43L409.59 195L409.59 194.56L409.62 194.13L409.65 193.7L409.7 193.26L409.77 192.83L409.85 192.4L409.94 191.97L410.05 191.54L410.17 191.12L410.3 190.7L410.45 190.28L410.62 189.86L410.8 189.45L410.99 189.04L411.2 188.63L411.42 188.23L411.66 187.84L411.91 187.45L412.17 187.06L412.45 186.68L463.03 120L324.26 120L323.81 120L323.36 119.99L322.91 119.98L322.47 119.97L322.02 119.96L321.58 119.94L321.14 119.92L320.7 119.89L320.26 119.86L319.82 119.83L319.38 119.8L318.94 119.76L318.51 119.72L318.07 119.67L317.64 119.62L317.2 119.57L316.77 119.52L316.34 119.46L315.91 119.4L315.48 119.33L315.06 119.27L314.63 119.2L314.21 119.12L313.78 119.05L313.36 118.97L312.94 118.89L312.52 118.8L312.1 118.71L311.69 118.62L311.27 118.53L310.86 118.43L310.44 118.33L310.03 118.22L309.62 118.12L309.21 118.01L308.81 117.9L308.4 117.78L308 117.66L307.59 117.54L307.19 117.42L307.19 255L307.2 255.41ZM136.53 240L273.06 240L273.06 75L273.04 74.38L273 73.77L272.93 73.17L272.83 72.57L272.71 71.98L272.56 71.4L272.39 70.83L272.19 70.26L271.96 69.71L271.72 69.17L271.44 68.63L271.15 68.11L270.84 67.6L270.5 67.1L270.14 66.62L269.76 66.15L269.36 65.69L268.95 65.24L268.51 64.81L268.05 64.4L267.58 64L267.09 63.62L266.59 63.25L266.06 62.9L265.53 62.57L264.98 62.25L264.41 61.95L263.83 61.68L263.24 61.42L262.63 61.18L262.01 60.96L261.38 60.77L260.74 60.59L260.09 60.44L259.43 60.31L258.76 60.2L258.08 60.11L257.39 60.05L256.69 60.01L255.99 60L136.53 60L136.53 240Z" id="a27n8ZiNtc"></path></defs><g><g><g><use xlink:href="#a27n8ZiNtc" opacity="1" fill="#c5c5c5" fill-opacity="1"></use><g><use xlink:href="#a27n8ZiNtc" opacity="1" fill-opacity="0" stroke="#000000" stroke-width="1" stroke-opacity="0"></use></g></g></g></g></svg>