<svg xmlns="http://www.w3.org/2000/svg" width="512" height="512" viewBox="0 0 16 16" fill="none">
    <g transform="scale(0.9)">
        <path d="M14.5002 3H7.71021L6.86023 2.15002L6.51025 2H1.51025L1.01025 2.5V6.5V13.5L1.51025 14H14.5103L15.0103 13.5V9V3.5L14.5002 3ZM13.9902 11.49V13H1.99023V11.49V7.48999V7H6.48022L6.8302 6.84998L7.69019 5.98999H14.0002V7.48999L13.9902 11.49ZM13.9902 5H7.49023L7.14026 5.15002L6.28027 6.01001H2.00024V3.01001H6.29028L7.14026 3.85999L7.50024 4.01001H14.0002L13.9902 5Z" fill="#C5C5C5"/>
    </g>
    <g transform="translate(4,5) scale(0.7)">
        <path fill-rule="evenodd" clip-rule="evenodd" d="M5.00024 2.5L5.50024 2H7.50024L8.00024 2.5V13.5L7.50024 14H5.50024L5.00024 13.5V2.5ZM6.00024 3V13H7.00024V3H6.00024Z" fill="#C5C5C5"/>
        <path fill-rule="evenodd" clip-rule="evenodd" d="M9.17125 3.34472L9.47009 2.70387L11.3495 2.01983L11.9903 2.31866L15.7526 12.6553L15.4537 13.2961L13.5743 13.9802L12.9335 13.6813L9.17125 3.34472ZM10.282 3.47255L13.7022 12.8695L14.6419 12.5275L11.2216 3.13053L10.282 3.47255Z" fill="#C5C5C5"/>
        <path fill-rule="evenodd" clip-rule="evenodd" d="M1.00024 2.5L1.50024 2H3.50024L4.00024 2.5V13.5L3.50024 14H1.50024L1.00024 13.5V2.5ZM2.00024 3V13H3.00024V3H2.00024Z" fill="#C5C5C5"/>   
    </g>
</svg>