<svg xmlns="http://www.w3.org/2000/svg" width="512" height="512" viewBox="0 0 16 16" fill="none">
    <g transform="scale(0.9)">
        <path fill-rule="evenodd" clip-rule="evenodd" d="M5.00024 2.5L5.50024 2H7.50024L8.00024 2.5V13.5L7.50024 14H5.50024L5.00024 13.5V2.5ZM6.00024 3V13H7.00024V3H6.00024Z" fill="#C5C5C5"/>
        <path fill-rule="evenodd" clip-rule="evenodd" d="M9.17125 3.34472L9.47009 2.70387L11.3495 2.01983L11.9903 2.31866L15.7526 12.6553L15.4537 13.2961L13.5743 13.9802L12.9335 13.6813L9.17125 3.34472ZM10.282 3.47255L13.7022 12.8695L14.6419 12.5275L11.2216 3.13053L10.282 3.47255Z" fill="#C5C5C5"/>
        <path fill-rule="evenodd" clip-rule="evenodd" d="M1.00024 2.5L1.50024 2H3.50024L4.00024 2.5V13.5L3.50024 14H1.50024L1.00024 13.5V2.5ZM2.00024 3V13H3.00024V3H2.00024Z" fill="#C5C5C5"/>    
    </g>
    <g transform="translate(4,6) scale(0.7)">
        <path xmlns="http://www.w3.org/2000/svg" fill-rule="evenodd" clip-rule="evenodd" d="M7.56 1H8.44L14.98 13.26L14.54 14H1.44L1 13.26L7.56 1ZM8 2.28L2.28 13H13.7L8 2.28ZM8.625 12V11H7.375V12H8.625ZM7.375 10V6H8.625V10H7.375Z" fill="#FFCC00"/>
    </g>
</svg>