<?xml version="1.0" encoding="UTF-8" standalone="no"?>
<!DOCTYPE svg PUBLIC "-//W3C//DTD SVG 1.1//EN" "http://www.w3.org/Graphics/SVG/1.1/DTD/svg11.dtd">
<svg version="1.1" xmlns="http://www.w3.org/2000/svg" xmlns:xlink="http://www.w3.org/1999/xlink" preserveAspectRatio="xMidYMid meet" viewBox="0 0 512 512" width="512" height="512"><defs><path d="M108.44 131.06C74.29 269.21 55.31 345.97 51.52 361.32C62.3 369.04 74.34 372.9 87.62 372.9C100.9 372.9 112.44 369.04 122.22 361.32C126.61 345.97 148.58 269.21 188.13 131.06L267.82 131.06C230.67 269.21 210.04 345.97 205.91 361.32C219.93 369.04 233.41 372.9 246.36 372.9C259.31 372.9 271.72 369.04 283.6 361.32C287.86 345.97 309.16 269.21 347.51 131.06L432.2 131.06C392.65 269.21 370.68 345.97 366.29 361.32C382.71 369.04 397.64 372.9 411.09 372.9C424.54 372.9 436.5 369.04 446.98 361.32C481.77 241.7 500.98 174.22 504.63 158.89C516.01 107.34 490.27 61.58 432.2 61.58C385.29 61.58 258.4 61.58 51.52 61.58C59.11 70.84 78.08 94 108.44 131.06Z" id="a4DBCsbRD"></path><mask id="maska7OLdoGD7" x="31.52" y="41.58" width="495.74" height="351.32" maskUnits="userSpaceOnUse"><rect x="31.52" y="41.58" width="495.74" height="351.32" fill="white"></rect><use xlink:href="#a4DBCsbRD" opacity="1" fill="black"></use></mask><path d="M108.44 131.06C74.29 269.21 55.31 345.97 51.52 361.32C62.3 369.04 74.34 372.9 87.62 372.9C100.9 372.9 112.44 369.04 122.22 361.32C126.61 345.97 148.58 269.21 188.13 131.06L267.82 131.06C230.67 269.21 210.04 345.97 205.91 361.32C219.93 369.04 233.41 372.9 246.36 372.9C259.31 372.9 271.72 369.04 283.6 361.32C287.86 345.97 309.16 269.21 347.51 131.06L432.2 131.06C392.65 269.21 370.68 345.97 366.29 361.32C382.71 369.04 397.64 372.9 411.09 372.9C424.54 372.9 436.5 369.04 446.98 361.32C481.77 241.7 500.98 174.22 504.63 158.89C516.01 107.34 490.27 61.58 432.2 61.58C385.29 61.58 258.4 61.58 51.52 61.58C59.11 70.84 78.08 94 108.44 131.06Z" id="a4zF2Cq6v"></path><mask id="maskdyapqFG5Q" x="31.52" y="41.58" width="495.74" height="351.32" maskUnits="userSpaceOnUse"><rect x="31.52" y="41.58" width="495.74" height="351.32" fill="white"></rect><use xlink:href="#a4zF2Cq6v" opacity="1" fill="black"></use></mask><path d="M60.24 210.52C26.08 348.67 7.11 425.43 3.32 440.78C14.1 448.5 26.14 452.36 39.42 452.36C52.7 452.36 64.24 448.5 74.02 440.78C78.41 425.43 100.38 348.67 139.93 210.52L219.62 210.52C182.47 348.67 161.83 425.43 157.71 440.78C171.73 448.5 185.21 452.36 198.16 452.36C211.11 452.36 223.52 448.5 235.4 440.78C239.66 425.43 260.96 348.67 299.31 210.52L384 210.52C344.45 348.67 322.48 425.43 318.09 440.78C334.51 448.5 349.44 452.36 362.89 452.36C376.34 452.36 388.3 448.5 398.78 440.78C433.57 321.16 452.78 253.68 456.43 238.35C467.81 186.8 442.07 141.04 384 141.04C337.09 141.04 210.2 141.04 3.32 141.04C10.91 150.3 29.88 173.46 60.24 210.52Z" id="b27UYTQj7n"></path><mask id="maskawfEfapoR" x="-16.68" y="121.04" width="495.74" height="351.32" maskUnits="userSpaceOnUse"><rect x="-16.68" y="121.04" width="495.74" height="351.32" fill="white"></rect><use xlink:href="#b27UYTQj7n" opacity="1" fill="black"></use></mask><path d="M60.24 210.52C26.08 348.67 7.11 425.43 3.32 440.78C14.1 448.5 26.14 452.36 39.42 452.36C52.7 452.36 64.24 448.5 74.02 440.78C78.41 425.43 100.38 348.67 139.93 210.52L219.62 210.52C182.47 348.67 161.83 425.43 157.71 440.78C171.73 448.5 185.21 452.36 198.16 452.36C211.11 452.36 223.52 448.5 235.4 440.78C239.66 425.43 260.96 348.67 299.31 210.52L384 210.52C344.45 348.67 322.48 425.43 318.09 440.78C334.51 448.5 349.44 452.36 362.89 452.36C376.34 452.36 388.3 448.5 398.78 440.78C433.57 321.16 452.78 253.68 456.43 238.35C467.81 186.8 442.07 141.04 384 141.04C337.09 141.04 210.2 141.04 3.32 141.04C10.91 150.3 29.88 173.46 60.24 210.52Z" id="ajDccFxb"></path><mask id="maska36PJRW6B7" x="-16.68" y="121.04" width="495.74" height="351.32" maskUnits="userSpaceOnUse"><rect x="-16.68" y="121.04" width="495.74" height="351.32" fill="white"></rect><use xlink:href="#ajDccFxb" opacity="1" fill="black"></use></mask></defs><g><g><g><g><use xlink:href="#a4DBCsbRD" opacity="1" fill="#c5c5c5" fill-opacity="1"></use><g mask="url(#maska7OLdoGD7)"><use xlink:href="#a4DBCsbRD" opacity="1" fill-opacity="0" stroke="#373738" stroke-width="20" stroke-opacity="1"></use></g></g><g><use xlink:href="#a4zF2Cq6v" opacity="1" fill="#000000" fill-opacity="0"></use><g mask="url(#maskdyapqFG5Q)"><use xlink:href="#a4zF2Cq6v" opacity="1" fill-opacity="0" stroke="#373738" stroke-width="20" stroke-opacity="1"></use></g></g></g><g><g><use xlink:href="#b27UYTQj7n" opacity="1" fill="#c5c5c5" fill-opacity="1"></use><g mask="url(#maskawfEfapoR)"><use xlink:href="#b27UYTQj7n" opacity="1" fill-opacity="0" stroke="#373738" stroke-width="20" stroke-opacity="1"></use></g></g><g><use xlink:href="#ajDccFxb" opacity="1" fill="#000000" fill-opacity="0"></use><g mask="url(#maska36PJRW6B7)"><use xlink:href="#ajDccFxb" opacity="1" fill-opacity="0" stroke="#373738" stroke-width="20" stroke-opacity="1"></use></g></g></g></g></g></svg>